<svg width="981" height="250" viewBox="0 0 981 250" fill="none" xmlns="http://www.w3.org/2000/svg">
<rect x="4" y="2.5" width="245" height="245" rx="17.5" fill="black" fill-opacity="0.06" stroke="url(#paint0_linear_14_157)" stroke-width="5"/>
<g filter="url(#filter0_d_14_157)">
<path d="M83.0909 153.955C77.7273 153.955 72.9659 153.011 68.8068 151.125C64.6705 149.216 61.4091 146.591 59.0227 143.25C56.6591 139.909 55.4545 136.068 55.4091 131.727H73.8182C73.8864 134.136 74.8182 136.057 76.6136 137.489C78.4318 138.92 80.5909 139.636 83.0909 139.636C85.0227 139.636 86.7273 139.227 88.2045 138.409C89.6818 137.568 90.8409 136.386 91.6818 134.864C92.5227 133.341 92.9318 131.568 92.9091 129.545C92.9318 127.5 92.5227 125.727 91.6818 124.227C90.8409 122.705 89.6818 121.534 88.2045 120.716C86.7273 119.875 85.0227 119.455 83.0909 119.455C81.0909 119.455 79.2386 119.943 77.5341 120.92C75.8523 121.875 74.6136 123.205 73.8182 124.909L57.1818 121.636L59.9091 83.1818H106.818V98.3182H75.4545L74.0909 113.727H74.5C75.5909 111.614 77.4773 109.864 80.1591 108.477C82.8409 107.068 85.9545 106.364 89.5 106.364C93.6591 106.364 97.3636 107.33 100.614 109.261C103.886 111.193 106.466 113.864 108.352 117.273C110.261 120.659 111.205 124.568 111.182 129C111.205 133.864 110.045 138.182 107.705 141.955C105.386 145.705 102.125 148.648 97.9205 150.784C93.7159 152.898 88.7727 153.955 83.0909 153.955ZM159.31 139.909V136.227C159.31 133.273 159.946 130.545 161.219 128.045C162.514 125.545 164.389 123.534 166.844 122.011C169.298 120.489 172.287 119.727 175.81 119.727C179.423 119.727 182.457 120.477 184.912 121.977C187.389 123.477 189.264 125.477 190.537 127.977C191.81 130.477 192.446 133.227 192.446 136.227V139.909C192.446 142.864 191.798 145.591 190.503 148.091C189.23 150.591 187.355 152.602 184.878 154.125C182.401 155.648 179.378 156.409 175.81 156.409C172.241 156.409 169.23 155.648 166.776 154.125C164.321 152.602 162.457 150.591 161.185 148.091C159.935 145.591 159.31 142.864 159.31 139.909ZM171.173 136.227V139.909C171.173 141.205 171.491 142.489 172.128 143.761C172.787 145.011 174.014 145.636 175.81 145.636C177.696 145.636 178.935 145.023 179.526 143.795C180.139 142.568 180.446 141.273 180.446 139.909V136.227C180.446 134.864 180.162 133.545 179.594 132.273C179.026 131 177.764 130.364 175.81 130.364C174.014 130.364 172.787 131 172.128 132.273C171.491 133.545 171.173 134.864 171.173 136.227ZM122.764 99.9545V96.2727C122.764 93.2727 123.412 90.5227 124.707 88.0227C126.026 85.5227 127.912 83.5227 130.366 82.0227C132.821 80.5227 135.787 79.7727 139.264 79.7727C142.878 79.7727 145.912 80.5227 148.366 82.0227C150.844 83.5227 152.719 85.5227 153.991 88.0227C155.264 90.5227 155.901 93.2727 155.901 96.2727V99.9545C155.901 102.955 155.253 105.693 153.957 108.17C152.685 110.648 150.81 112.625 148.332 114.102C145.855 115.58 142.832 116.318 139.264 116.318C135.696 116.318 132.685 115.568 130.23 114.068C127.776 112.568 125.912 110.58 124.639 108.102C123.389 105.625 122.764 102.909 122.764 99.9545ZM134.764 96.2727V99.9545C134.764 101.318 135.082 102.614 135.719 103.841C136.355 105.068 137.537 105.682 139.264 105.682C141.151 105.682 142.389 105.068 142.98 103.841C143.594 102.614 143.901 101.318 143.901 99.9545V96.2727C143.901 94.9091 143.616 93.5909 143.048 92.3182C142.48 91.0455 141.219 90.4091 139.264 90.4091C137.469 90.4091 136.264 91.0682 135.651 92.3864C135.06 93.6818 134.764 94.9773 134.764 96.2727ZM128.56 153L176.56 83.1818H186.241L138.241 153H128.56Z" fill="white"/>
</g>
<path d="M88.464 188.536H79.032L77.52 193H71.076L80.22 167.728H87.348L96.492 193H89.976L88.464 188.536ZM86.88 183.784L83.748 174.532L80.652 183.784H86.88ZM127.895 167.728V193H121.739V177.844L116.087 193H111.119L105.431 177.808V193H99.275V167.728H106.547L113.639 185.224L120.659 167.728H127.895ZM131.278 180.328C131.278 177.832 131.818 175.612 132.898 173.668C133.978 171.7 135.478 170.176 137.398 169.096C139.342 167.992 141.538 167.44 143.986 167.44C146.986 167.44 149.554 168.232 151.69 169.816C153.826 171.4 155.254 173.56 155.974 176.296H149.206C148.702 175.24 147.982 174.436 147.046 173.884C146.134 173.332 145.09 173.056 143.914 173.056C142.018 173.056 140.482 173.716 139.306 175.036C138.13 176.356 137.542 178.12 137.542 180.328C137.542 182.536 138.13 184.3 139.306 185.62C140.482 186.94 142.018 187.6 143.914 187.6C145.09 187.6 146.134 187.324 147.046 186.772C147.982 186.22 148.702 185.416 149.206 184.36H155.974C155.254 187.096 153.826 189.256 151.69 190.84C149.554 192.4 146.986 193.18 143.986 193.18C141.538 193.18 139.342 192.64 137.398 191.56C135.478 190.456 133.978 188.932 132.898 186.988C131.818 185.044 131.278 182.824 131.278 180.328ZM163.452 178.888C161.196 177.688 160.068 175.804 160.068 173.236C160.068 171.94 160.404 170.764 161.076 169.708C161.748 168.628 162.768 167.776 164.136 167.152C165.504 166.504 167.184 166.18 169.176 166.18C171.168 166.18 172.836 166.504 174.18 167.152C175.548 167.776 176.568 168.628 177.24 169.708C177.912 170.764 178.248 171.94 178.248 173.236C178.248 174.532 177.936 175.66 177.312 176.62C176.712 177.58 175.896 178.336 174.864 178.888C176.16 179.512 177.156 180.376 177.852 181.48C178.548 182.56 178.896 183.832 178.896 185.296C178.896 187 178.464 188.476 177.6 189.724C176.736 190.948 175.56 191.884 174.072 192.532C172.608 193.18 170.976 193.504 169.176 193.504C167.376 193.504 165.732 193.18 164.244 192.532C162.78 191.884 161.616 190.948 160.752 189.724C159.888 188.476 159.456 187 159.456 185.296C159.456 183.808 159.804 182.524 160.5 181.444C161.196 180.34 162.18 179.488 163.452 178.888ZM172.272 174.172C172.272 173.188 171.984 172.432 171.408 171.904C170.856 171.352 170.112 171.076 169.176 171.076C168.24 171.076 167.484 171.352 166.908 171.904C166.356 172.456 166.08 173.224 166.08 174.208C166.08 175.144 166.368 175.888 166.944 176.44C167.52 176.968 168.264 177.232 169.176 177.232C170.088 177.232 170.832 176.956 171.408 176.404C171.984 175.852 172.272 175.108 172.272 174.172ZM169.176 181.552C168.048 181.552 167.136 181.864 166.44 182.488C165.744 183.088 165.396 183.928 165.396 185.008C165.396 186.016 165.732 186.844 166.404 187.492C167.1 188.14 168.024 188.464 169.176 188.464C170.328 188.464 171.228 188.14 171.876 187.492C172.548 186.844 172.884 186.016 172.884 185.008C172.884 183.952 172.536 183.112 171.84 182.488C171.168 181.864 170.28 181.552 169.176 181.552Z" fill="white"/>
<path d="M116.98 53.1V54.96H113.28V67H111V54.96H107.28V53.1H116.98ZM124.069 67.18C123.029 67.18 122.089 66.9467 121.249 66.48C120.409 66 119.749 65.3333 119.269 64.48C118.789 63.6133 118.549 62.6133 118.549 61.48C118.549 60.36 118.796 59.3667 119.289 58.5C119.782 57.6333 120.456 56.9667 121.309 56.5C122.162 56.0333 123.116 55.8 124.169 55.8C125.222 55.8 126.176 56.0333 127.029 56.5C127.882 56.9667 128.556 57.6333 129.049 58.5C129.542 59.3667 129.789 60.36 129.789 61.48C129.789 62.6 129.536 63.5933 129.029 64.46C128.522 65.3267 127.829 66 126.949 66.48C126.082 66.9467 125.122 67.18 124.069 67.18ZM124.069 65.2C124.656 65.2 125.202 65.06 125.709 64.78C126.229 64.5 126.649 64.08 126.969 63.52C127.289 62.96 127.449 62.28 127.449 61.48C127.449 60.68 127.296 60.0067 126.989 59.46C126.682 58.9 126.276 58.48 125.769 58.2C125.262 57.92 124.716 57.78 124.129 57.78C123.542 57.78 122.996 57.92 122.489 58.2C121.996 58.48 121.602 58.9 121.309 59.46C121.016 60.0067 120.869 60.68 120.869 61.48C120.869 62.6667 121.169 63.5867 121.769 64.24C122.382 64.88 123.149 65.2 124.069 65.2ZM134.323 57.6C134.71 57.0933 135.236 56.6667 135.903 56.32C136.57 55.9733 137.323 55.8 138.163 55.8C139.123 55.8 139.996 56.04 140.783 56.52C141.583 56.9867 142.21 57.6467 142.663 58.5C143.116 59.3533 143.343 60.3333 143.343 61.44C143.343 62.5467 143.116 63.54 142.663 64.42C142.21 65.2867 141.583 65.9667 140.783 66.46C139.996 66.94 139.123 67.18 138.163 67.18C137.323 67.18 136.576 67.0133 135.923 66.68C135.27 66.3333 134.736 65.9067 134.323 65.4V72.24H132.043V55.98H134.323V57.6ZM141.023 61.44C141.023 60.68 140.863 60.0267 140.543 59.48C140.236 58.92 139.823 58.5 139.303 58.22C138.796 57.9267 138.25 57.78 137.663 57.78C137.09 57.78 136.543 57.9267 136.023 58.22C135.516 58.5133 135.103 58.94 134.783 59.5C134.476 60.06 134.323 60.72 134.323 61.48C134.323 62.24 134.476 62.9067 134.783 63.48C135.103 64.04 135.516 64.4667 136.023 64.76C136.543 65.0533 137.09 65.2 137.663 65.2C138.25 65.2 138.796 65.0533 139.303 64.76C139.823 64.4533 140.236 64.0133 140.543 63.44C140.863 62.8667 141.023 62.2 141.023 61.44Z" fill="white"/>
<rect x="368" y="2.5" width="245" height="245" rx="17.5" fill="black" fill-opacity="0.06" stroke="url(#paint1_linear_14_157)" stroke-width="5"/>
<g filter="url(#filter1_d_14_157)">
<path d="M386.364 145V133.636L408.068 115.682C409.508 114.489 410.739 113.371 411.761 112.33C412.803 111.269 413.598 110.18 414.148 109.062C414.716 107.945 415 106.705 415 105.341C415 103.845 414.678 102.566 414.034 101.506C413.409 100.445 412.538 99.6307 411.42 99.0625C410.303 98.4754 409.015 98.1818 407.557 98.1818C406.098 98.1818 404.811 98.4754 403.693 99.0625C402.595 99.6496 401.742 100.511 401.136 101.648C400.53 102.784 400.227 104.167 400.227 105.795H385.227C385.227 101.705 386.146 98.1818 387.983 95.2273C389.82 92.2727 392.415 90 395.767 88.4091C399.119 86.8182 403.049 86.0227 407.557 86.0227C412.216 86.0227 416.25 86.7708 419.659 88.267C423.087 89.7443 425.729 91.8277 427.585 94.517C429.46 97.2064 430.398 100.36 430.398 103.977C430.398 106.212 429.934 108.437 429.006 110.653C428.078 112.85 426.411 115.284 424.006 117.955C421.6 120.625 418.182 123.807 413.75 127.5L408.295 132.045V132.386H431.023V145H386.364ZM463.423 146.591C458.139 146.572 453.575 145.35 449.73 142.926C445.885 140.502 442.921 137.008 440.838 132.443C438.755 127.879 437.723 122.405 437.741 116.023C437.76 109.621 438.802 104.186 440.866 99.7159C442.95 95.2462 445.904 91.8466 449.73 89.517C453.575 87.1875 458.139 86.0227 463.423 86.0227C468.707 86.0227 473.272 87.197 477.116 89.5455C480.961 91.875 483.925 95.2746 486.009 99.7443C488.092 104.214 489.124 109.64 489.105 116.023C489.105 122.443 488.063 127.936 485.98 132.5C483.897 137.064 480.933 140.559 477.088 142.983C473.262 145.388 468.707 146.591 463.423 146.591ZM463.423 133.75C466.151 133.75 468.385 132.33 470.128 129.489C471.889 126.629 472.76 122.14 472.741 116.023C472.741 112.027 472.344 108.759 471.548 106.222C470.753 103.684 469.654 101.809 468.253 100.597C466.851 99.3655 465.241 98.75 463.423 98.75C460.696 98.75 458.471 100.133 456.747 102.898C455.024 105.663 454.143 110.038 454.105 116.023C454.086 120.095 454.474 123.447 455.27 126.08C456.065 128.693 457.164 130.625 458.565 131.875C459.986 133.125 461.605 133.75 463.423 133.75ZM496.52 145V133.636L518.224 115.682C519.664 114.489 520.895 113.371 521.918 112.33C522.959 111.269 523.755 110.18 524.304 109.062C524.872 107.945 525.156 106.705 525.156 105.341C525.156 103.845 524.834 102.566 524.19 101.506C523.565 100.445 522.694 99.6307 521.577 99.0625C520.459 98.4754 519.171 98.1818 517.713 98.1818C516.255 98.1818 514.967 98.4754 513.849 99.0625C512.751 99.6496 511.899 100.511 511.293 101.648C510.687 102.784 510.384 104.167 510.384 105.795H495.384C495.384 101.705 496.302 98.1818 498.139 95.2273C499.976 92.2727 502.571 90 505.923 88.4091C509.276 86.8182 513.205 86.0227 517.713 86.0227C522.372 86.0227 526.406 86.7708 529.815 88.267C533.243 89.7443 535.885 91.8277 537.741 94.517C539.616 97.2064 540.554 100.36 540.554 103.977C540.554 106.212 540.09 108.437 539.162 110.653C538.234 112.85 536.567 115.284 534.162 117.955C531.757 120.625 528.338 123.807 523.906 127.5L518.452 132.045V132.386H541.179V145H496.52ZM570.966 145.795C566.383 145.795 562.311 145.009 558.75 143.438C555.208 141.847 552.424 139.659 550.398 136.875C548.371 134.091 547.348 130.89 547.33 127.273H563.239C563.258 128.39 563.598 129.394 564.261 130.284C564.943 131.155 565.871 131.837 567.045 132.33C568.22 132.822 569.564 133.068 571.08 133.068C572.538 133.068 573.826 132.812 574.943 132.301C576.061 131.771 576.932 131.042 577.557 130.114C578.182 129.186 578.485 128.125 578.466 126.932C578.485 125.758 578.125 124.716 577.386 123.807C576.667 122.898 575.653 122.187 574.347 121.676C573.04 121.165 571.534 120.909 569.83 120.909H563.92V110H569.83C571.402 110 572.784 109.744 573.977 109.233C575.189 108.722 576.127 108.011 576.79 107.102C577.472 106.193 577.803 105.152 577.784 103.977C577.803 102.841 577.528 101.837 576.96 100.966C576.392 100.095 575.597 99.4129 574.574 98.9205C573.57 98.428 572.405 98.1818 571.08 98.1818C569.64 98.1818 568.352 98.4375 567.216 98.9489C566.098 99.4602 565.218 100.17 564.574 101.08C563.93 101.989 563.598 103.03 563.58 104.205H548.466C548.485 100.644 549.46 97.5 551.392 94.7727C553.343 92.0455 556.013 89.9053 559.403 88.3523C562.794 86.7992 566.686 86.0227 571.08 86.0227C575.379 86.0227 579.176 86.7519 582.472 88.2102C585.786 89.6686 588.371 91.6761 590.227 94.233C592.102 96.7708 593.03 99.678 593.011 102.955C593.049 106.212 591.932 108.883 589.659 110.966C587.405 113.049 584.545 114.28 581.08 114.659V115.114C585.777 115.625 589.309 117.064 591.676 119.432C594.044 121.78 595.208 124.735 595.17 128.295C595.189 131.705 594.167 134.725 592.102 137.358C590.057 139.991 587.206 142.055 583.551 143.551C579.915 145.047 575.72 145.795 570.966 145.795Z" fill="white"/>
</g>
<path d="M425.396 164.536L419.54 187H412.916L409.332 172.216L405.62 187H398.996L393.3 164.536H399.156L402.388 180.888L406.388 164.536H412.404L416.244 180.888L419.508 164.536H425.396ZM444.972 177.784C444.972 178.296 444.94 178.829 444.876 179.384H432.492C432.578 180.493 432.93 181.347 433.548 181.944C434.188 182.52 434.967 182.808 435.884 182.808C437.25 182.808 438.199 182.232 438.732 181.08H444.556C444.258 182.253 443.714 183.309 442.924 184.248C442.156 185.187 441.186 185.923 440.012 186.456C438.839 186.989 437.527 187.256 436.076 187.256C434.327 187.256 432.77 186.883 431.404 186.136C430.039 185.389 428.972 184.323 428.204 182.936C427.436 181.549 427.052 179.928 427.052 178.072C427.052 176.216 427.426 174.595 428.172 173.208C428.94 171.821 430.007 170.755 431.372 170.008C432.738 169.261 434.306 168.888 436.076 168.888C437.804 168.888 439.34 169.251 440.684 169.976C442.028 170.701 443.074 171.736 443.82 173.08C444.588 174.424 444.972 175.992 444.972 177.784ZM439.372 176.344C439.372 175.405 439.052 174.659 438.412 174.104C437.772 173.549 436.972 173.272 436.012 173.272C435.095 173.272 434.316 173.539 433.676 174.072C433.058 174.605 432.674 175.363 432.524 176.344H439.372ZM453.331 171.672C453.843 170.84 454.579 170.168 455.539 169.656C456.499 169.144 457.598 168.888 458.835 168.888C460.307 168.888 461.64 169.261 462.835 170.008C464.03 170.755 464.968 171.821 465.651 173.208C466.355 174.595 466.707 176.205 466.707 178.04C466.707 179.875 466.355 181.496 465.651 182.904C464.968 184.291 464.03 185.368 462.835 186.136C461.64 186.883 460.307 187.256 458.835 187.256C457.576 187.256 456.478 187.011 455.539 186.52C454.6 186.008 453.864 185.336 453.331 184.504V187H447.859V163.32H453.331V171.672ZM461.139 178.04C461.139 176.675 460.755 175.608 459.987 174.84C459.24 174.051 458.312 173.656 457.203 173.656C456.115 173.656 455.187 174.051 454.419 174.84C453.672 175.629 453.299 176.707 453.299 178.072C453.299 179.437 453.672 180.515 454.419 181.304C455.187 182.093 456.115 182.488 457.203 182.488C458.291 182.488 459.219 182.093 459.987 181.304C460.755 180.493 461.139 179.405 461.139 178.04ZM492.362 168.952C494.58 168.952 496.34 169.624 497.642 170.968C498.964 172.312 499.626 174.179 499.626 176.568V187H494.186V177.304C494.186 176.152 493.876 175.267 493.258 174.648C492.66 174.008 491.828 173.688 490.762 173.688C489.695 173.688 488.852 174.008 488.234 174.648C487.636 175.267 487.338 176.152 487.338 177.304V187H481.898V177.304C481.898 176.152 481.588 175.267 480.97 174.648C480.372 174.008 479.54 173.688 478.474 173.688C477.407 173.688 476.564 174.008 475.946 174.648C475.348 175.267 475.05 176.152 475.05 177.304V187H469.578V169.144H475.05V171.384C475.604 170.637 476.33 170.051 477.226 169.624C478.122 169.176 479.135 168.952 480.266 168.952C481.61 168.952 482.804 169.24 483.85 169.816C484.916 170.392 485.748 171.213 486.346 172.28C486.964 171.299 487.807 170.499 488.874 169.88C489.94 169.261 491.103 168.952 492.362 168.952ZM502.365 178.04C502.365 176.205 502.706 174.595 503.389 173.208C504.093 171.821 505.042 170.755 506.237 170.008C507.431 169.261 508.765 168.888 510.237 168.888C511.495 168.888 512.594 169.144 513.533 169.656C514.493 170.168 515.229 170.84 515.741 171.672V169.144H521.213V187H515.741V184.472C515.207 185.304 514.461 185.976 513.501 186.488C512.562 187 511.463 187.256 510.205 187.256C508.754 187.256 507.431 186.883 506.237 186.136C505.042 185.368 504.093 184.291 503.389 182.904C502.706 181.496 502.365 179.875 502.365 178.04ZM515.741 178.072C515.741 176.707 515.357 175.629 514.589 174.84C513.842 174.051 512.925 173.656 511.837 173.656C510.749 173.656 509.821 174.051 509.053 174.84C508.306 175.608 507.933 176.675 507.933 178.04C507.933 179.405 508.306 180.493 509.053 181.304C509.821 182.093 510.749 182.488 511.837 182.488C512.925 182.488 513.842 182.093 514.589 181.304C515.357 180.515 515.741 179.437 515.741 178.072ZM532.436 187.256C530.878 187.256 529.492 186.989 528.276 186.456C527.06 185.923 526.1 185.197 525.396 184.28C524.692 183.341 524.297 182.296 524.212 181.144H529.62C529.684 181.763 529.972 182.264 530.484 182.648C530.996 183.032 531.625 183.224 532.372 183.224C533.054 183.224 533.577 183.096 533.94 182.84C534.324 182.563 534.516 182.211 534.516 181.784C534.516 181.272 534.249 180.899 533.716 180.664C533.182 180.408 532.318 180.131 531.124 179.832C529.844 179.533 528.777 179.224 527.924 178.904C527.07 178.563 526.334 178.04 525.716 177.336C525.097 176.611 524.788 175.64 524.788 174.424C524.788 173.4 525.065 172.472 525.62 171.64C526.196 170.787 527.028 170.115 528.116 169.624C529.225 169.133 530.537 168.888 532.052 168.888C534.292 168.888 536.052 169.443 537.332 170.552C538.633 171.661 539.38 173.133 539.572 174.968H534.516C534.43 174.349 534.153 173.859 533.684 173.496C533.236 173.133 532.638 172.952 531.892 172.952C531.252 172.952 530.761 173.08 530.42 173.336C530.078 173.571 529.908 173.901 529.908 174.328C529.908 174.84 530.174 175.224 530.708 175.48C531.262 175.736 532.116 175.992 533.268 176.248C534.59 176.589 535.668 176.931 536.5 177.272C537.332 177.592 538.057 178.125 538.676 178.872C539.316 179.597 539.646 180.579 539.668 181.816C539.668 182.861 539.369 183.8 538.772 184.632C538.196 185.443 537.353 186.083 536.244 186.552C535.156 187.021 533.886 187.256 532.436 187.256ZM552.967 182.36V187H550.183C548.199 187 546.653 186.52 545.543 185.56C544.434 184.579 543.879 182.989 543.879 180.792V173.688H541.703V169.144H543.879V164.792H549.351V169.144H552.935V173.688H549.351V180.856C549.351 181.389 549.479 181.773 549.735 182.008C549.991 182.243 550.418 182.36 551.015 182.36H552.967ZM572.847 177.784C572.847 178.296 572.815 178.829 572.751 179.384H560.367C560.453 180.493 560.805 181.347 561.423 181.944C562.063 182.52 562.842 182.808 563.759 182.808C565.125 182.808 566.074 182.232 566.607 181.08H572.431C572.133 182.253 571.589 183.309 570.799 184.248C570.031 185.187 569.061 185.923 567.887 186.456C566.714 186.989 565.402 187.256 563.951 187.256C562.202 187.256 560.645 186.883 559.279 186.136C557.914 185.389 556.847 184.323 556.079 182.936C555.311 181.549 554.927 179.928 554.927 178.072C554.927 176.216 555.301 174.595 556.047 173.208C556.815 171.821 557.882 170.755 559.247 170.008C560.613 169.261 562.181 168.888 563.951 168.888C565.679 168.888 567.215 169.251 568.559 169.976C569.903 170.701 570.949 171.736 571.695 173.08C572.463 174.424 572.847 175.992 572.847 177.784ZM567.247 176.344C567.247 175.405 566.927 174.659 566.287 174.104C565.647 173.549 564.847 173.272 563.887 173.272C562.97 173.272 562.191 173.539 561.551 174.072C560.933 174.605 560.549 175.363 560.399 176.344H567.247ZM581.206 172.12C581.846 171.139 582.646 170.371 583.606 169.816C584.566 169.24 585.633 168.952 586.806 168.952V174.744H585.302C583.937 174.744 582.913 175.043 582.23 175.64C581.547 176.216 581.206 177.24 581.206 178.712V187H575.734V169.144H581.206V172.12Z" fill="white"/>
<path d="M402.28 65.16H406.98V67H400V53.1H402.28V65.16ZM418.807 55.98L412.047 72.18H409.687L411.927 66.82L407.587 55.98H410.127L413.227 64.38L416.447 55.98H418.807ZM426.087 55.8C426.954 55.8 427.727 55.98 428.407 56.34C429.101 56.7 429.641 57.2333 430.027 57.94C430.414 58.6467 430.607 59.5 430.607 60.5V67H428.347V60.84C428.347 59.8533 428.101 59.1 427.607 58.58C427.114 58.0467 426.441 57.78 425.587 57.78C424.734 57.78 424.054 58.0467 423.547 58.58C423.054 59.1 422.807 59.8533 422.807 60.84V67H420.527V55.98H422.807V57.24C423.181 56.7867 423.654 56.4333 424.227 56.18C424.814 55.9267 425.434 55.8 426.087 55.8ZM435.796 57.62C436.182 57.0867 436.709 56.6533 437.376 56.32C438.056 55.9733 438.809 55.8 439.636 55.8C440.609 55.8 441.489 56.0333 442.276 56.5C443.062 56.9667 443.682 57.6333 444.136 58.5C444.589 59.3533 444.816 60.3333 444.816 61.44C444.816 62.5467 444.589 63.54 444.136 64.42C443.682 65.2867 443.056 65.9667 442.256 66.46C441.469 66.94 440.596 67.18 439.636 67.18C438.782 67.18 438.022 67.0133 437.356 66.68C436.702 66.3467 436.182 65.92 435.796 65.4V67H433.516V52.2H435.796V57.62ZM442.496 61.44C442.496 60.68 442.336 60.0267 442.016 59.48C441.709 58.92 441.296 58.5 440.776 58.22C440.269 57.9267 439.722 57.78 439.136 57.78C438.562 57.78 438.016 57.9267 437.496 58.22C436.989 58.5133 436.576 58.94 436.256 59.5C435.949 60.06 435.796 60.72 435.796 61.48C435.796 62.24 435.949 62.9067 436.256 63.48C436.576 64.04 436.989 64.4667 437.496 64.76C438.016 65.0533 438.562 65.2 439.136 65.2C439.722 65.2 440.269 65.0533 440.776 64.76C441.296 64.4533 441.709 64.0133 442.016 63.44C442.336 62.8667 442.496 62.2 442.496 61.44ZM449.35 57.58C449.684 57.02 450.124 56.5867 450.67 56.28C451.23 55.96 451.89 55.8 452.65 55.8V58.16H452.07C451.177 58.16 450.497 58.3867 450.03 58.84C449.577 59.2933 449.35 60.08 449.35 61.2V67H447.07V55.98H449.35V57.58ZM459.526 67.18C458.486 67.18 457.546 66.9467 456.706 66.48C455.866 66 455.206 65.3333 454.726 64.48C454.246 63.6133 454.006 62.6133 454.006 61.48C454.006 60.36 454.253 59.3667 454.746 58.5C455.239 57.6333 455.913 56.9667 456.766 56.5C457.619 56.0333 458.573 55.8 459.626 55.8C460.679 55.8 461.633 56.0333 462.486 56.5C463.339 56.9667 464.013 57.6333 464.506 58.5C464.999 59.3667 465.246 60.36 465.246 61.48C465.246 62.6 464.993 63.5933 464.486 64.46C463.979 65.3267 463.286 66 462.406 66.48C461.539 66.9467 460.579 67.18 459.526 67.18ZM459.526 65.2C460.113 65.2 460.659 65.06 461.166 64.78C461.686 64.5 462.106 64.08 462.426 63.52C462.746 62.96 462.906 62.28 462.906 61.48C462.906 60.68 462.753 60.0067 462.446 59.46C462.139 58.9 461.733 58.48 461.226 58.2C460.719 57.92 460.173 57.78 459.586 57.78C458.999 57.78 458.453 57.92 457.946 58.2C457.453 58.48 457.059 58.9 456.766 59.46C456.473 60.0067 456.326 60.68 456.326 61.48C456.326 62.6667 456.626 63.5867 457.226 64.24C457.839 64.88 458.606 65.2 459.526 65.2ZM472.28 67.18C471.24 67.18 470.3 66.9467 469.46 66.48C468.62 66 467.96 65.3333 467.48 64.48C467 63.6133 466.76 62.6133 466.76 61.48C466.76 60.36 467.007 59.3667 467.5 58.5C467.993 57.6333 468.667 56.9667 469.52 56.5C470.373 56.0333 471.327 55.8 472.38 55.8C473.433 55.8 474.387 56.0333 475.24 56.5C476.093 56.9667 476.767 57.6333 477.26 58.5C477.753 59.3667 478 60.36 478 61.48C478 62.6 477.747 63.5933 477.24 64.46C476.733 65.3267 476.04 66 475.16 66.48C474.293 66.9467 473.333 67.18 472.28 67.18ZM472.28 65.2C472.867 65.2 473.413 65.06 473.92 64.78C474.44 64.5 474.86 64.08 475.18 63.52C475.5 62.96 475.66 62.28 475.66 61.48C475.66 60.68 475.507 60.0067 475.2 59.46C474.893 58.9 474.487 58.48 473.98 58.2C473.473 57.92 472.927 57.78 472.34 57.78C471.753 57.78 471.207 57.92 470.7 58.2C470.207 58.48 469.813 58.9 469.52 59.46C469.227 60.0067 469.08 60.68 469.08 61.48C469.08 62.6667 469.38 63.5867 469.98 64.24C470.593 64.88 471.36 65.2 472.28 65.2ZM484.614 61.5L489.694 67H486.614L482.534 62.26V67H480.254V52.2H482.534V60.8L486.534 55.98H489.694L484.614 61.5ZM503.743 67L500.543 61.44H498.803V67H496.523V53.1H501.323C502.39 53.1 503.29 53.2867 504.023 53.66C504.77 54.0333 505.323 54.5333 505.683 55.16C506.057 55.7867 506.243 56.4867 506.243 57.26C506.243 58.1667 505.977 58.9933 505.443 59.74C504.923 60.4733 504.117 60.9733 503.023 61.24L506.463 67H503.743ZM498.803 59.62H501.323C502.177 59.62 502.817 59.4067 503.243 58.98C503.683 58.5533 503.903 57.98 503.903 57.26C503.903 56.54 503.69 55.98 503.263 55.58C502.837 55.1667 502.19 54.96 501.323 54.96H498.803V59.62ZM513.94 67.18C512.9 67.18 511.96 66.9467 511.12 66.48C510.28 66 509.62 65.3333 509.14 64.48C508.66 63.6133 508.42 62.6133 508.42 61.48C508.42 60.36 508.667 59.3667 509.16 58.5C509.653 57.6333 510.327 56.9667 511.18 56.5C512.033 56.0333 512.987 55.8 514.04 55.8C515.093 55.8 516.047 56.0333 516.9 56.5C517.753 56.9667 518.427 57.6333 518.92 58.5C519.413 59.3667 519.66 60.36 519.66 61.48C519.66 62.6 519.407 63.5933 518.9 64.46C518.393 65.3267 517.7 66 516.82 66.48C515.953 66.9467 514.993 67.18 513.94 67.18ZM513.94 65.2C514.527 65.2 515.073 65.06 515.58 64.78C516.1 64.5 516.52 64.08 516.84 63.52C517.16 62.96 517.32 62.28 517.32 61.48C517.32 60.68 517.167 60.0067 516.86 59.46C516.553 58.9 516.147 58.48 515.64 58.2C515.133 57.92 514.587 57.78 514 57.78C513.413 57.78 512.867 57.92 512.36 58.2C511.867 58.48 511.473 58.9 511.18 59.46C510.887 60.0067 510.74 60.68 510.74 61.48C510.74 62.6667 511.04 63.5867 511.64 64.24C512.253 64.88 513.02 65.2 513.94 65.2ZM524.194 57.62C524.581 57.0867 525.107 56.6533 525.774 56.32C526.454 55.9733 527.207 55.8 528.034 55.8C529.007 55.8 529.887 56.0333 530.674 56.5C531.461 56.9667 532.081 57.6333 532.534 58.5C532.987 59.3533 533.214 60.3333 533.214 61.44C533.214 62.5467 532.987 63.54 532.534 64.42C532.081 65.2867 531.454 65.9667 530.654 66.46C529.867 66.94 528.994 67.18 528.034 67.18C527.181 67.18 526.421 67.0133 525.754 66.68C525.101 66.3467 524.581 65.92 524.194 65.4V67H521.914V52.2H524.194V57.62ZM530.894 61.44C530.894 60.68 530.734 60.0267 530.414 59.48C530.107 58.92 529.694 58.5 529.174 58.22C528.667 57.9267 528.121 57.78 527.534 57.78C526.961 57.78 526.414 57.9267 525.894 58.22C525.387 58.5133 524.974 58.94 524.654 59.5C524.347 60.06 524.194 60.72 524.194 61.48C524.194 62.24 524.347 62.9067 524.654 63.48C524.974 64.04 525.387 64.4667 525.894 64.76C526.414 65.0533 526.961 65.2 527.534 65.2C528.121 65.2 528.667 65.0533 529.174 64.76C529.694 64.4533 530.107 64.0133 530.414 63.44C530.734 62.8667 530.894 62.2 530.894 61.44ZM540.249 67.18C539.209 67.18 538.269 66.9467 537.429 66.48C536.589 66 535.929 65.3333 535.449 64.48C534.969 63.6133 534.729 62.6133 534.729 61.48C534.729 60.36 534.975 59.3667 535.469 58.5C535.962 57.6333 536.635 56.9667 537.489 56.5C538.342 56.0333 539.295 55.8 540.349 55.8C541.402 55.8 542.355 56.0333 543.209 56.5C544.062 56.9667 544.735 57.6333 545.229 58.5C545.722 59.3667 545.969 60.36 545.969 61.48C545.969 62.6 545.715 63.5933 545.209 64.46C544.702 65.3267 544.009 66 543.129 66.48C542.262 66.9467 541.302 67.18 540.249 67.18ZM540.249 65.2C540.835 65.2 541.382 65.06 541.889 64.78C542.409 64.5 542.829 64.08 543.149 63.52C543.469 62.96 543.629 62.28 543.629 61.48C543.629 60.68 543.475 60.0067 543.169 59.46C542.862 58.9 542.455 58.48 541.949 58.2C541.442 57.92 540.895 57.78 540.309 57.78C539.722 57.78 539.175 57.92 538.669 58.2C538.175 58.48 537.782 58.9 537.489 59.46C537.195 60.0067 537.049 60.68 537.049 61.48C537.049 62.6667 537.349 63.5867 537.949 64.24C538.562 64.88 539.329 65.2 540.249 65.2ZM550.883 57.84V63.94C550.883 64.3533 550.976 64.6533 551.163 64.84C551.363 65.0133 551.696 65.1 552.163 65.1H553.563V67H551.763C550.736 67 549.949 66.76 549.403 66.28C548.856 65.8 548.583 65.02 548.583 63.94V57.84H547.283V55.98H548.583V53.24H550.883V55.98H553.563V57.84H550.883ZM556.824 54.52C556.411 54.52 556.064 54.38 555.784 54.1C555.504 53.82 555.364 53.4733 555.364 53.06C555.364 52.6467 555.504 52.3 555.784 52.02C556.064 51.74 556.411 51.6 556.824 51.6C557.224 51.6 557.564 51.74 557.844 52.02C558.124 52.3 558.264 52.6467 558.264 53.06C558.264 53.4733 558.124 53.82 557.844 54.1C557.564 54.38 557.224 54.52 556.824 54.52ZM557.944 55.98V67H555.664V55.98H557.944ZM560.178 61.48C560.178 60.3467 560.404 59.3533 560.858 58.5C561.324 57.6333 561.964 56.9667 562.778 56.5C563.591 56.0333 564.524 55.8 565.578 55.8C566.911 55.8 568.011 56.12 568.878 56.76C569.758 57.3867 570.351 58.2867 570.658 59.46H568.198C567.998 58.9133 567.678 58.4867 567.238 58.18C566.798 57.8733 566.244 57.72 565.578 57.72C564.644 57.72 563.898 58.0533 563.338 58.72C562.791 59.3733 562.518 60.2933 562.518 61.48C562.518 62.6667 562.791 63.5933 563.338 64.26C563.898 64.9267 564.644 65.26 565.578 65.26C566.898 65.26 567.771 64.68 568.198 63.52H570.658C570.338 64.64 569.738 65.5333 568.858 66.2C567.978 66.8533 566.884 67.18 565.578 67.18C564.524 67.18 563.591 66.9467 562.778 66.48C561.964 66 561.324 65.3333 560.858 64.48C560.404 63.6133 560.178 62.6133 560.178 61.48ZM576.93 67.18C576.063 67.18 575.283 67.0267 574.59 66.72C573.91 66.4 573.37 65.9733 572.97 65.44C572.57 64.8933 572.356 64.2867 572.33 63.62H574.69C574.73 64.0867 574.95 64.48 575.35 64.8C575.763 65.1067 576.276 65.26 576.89 65.26C577.53 65.26 578.023 65.14 578.37 64.9C578.73 64.6467 578.91 64.3267 578.91 63.94C578.91 63.5267 578.71 63.22 578.31 63.02C577.923 62.82 577.303 62.6 576.45 62.36C575.623 62.1333 574.95 61.9133 574.43 61.7C573.91 61.4867 573.456 61.16 573.07 60.72C572.696 60.28 572.51 59.7 572.51 58.98C572.51 58.3933 572.683 57.86 573.03 57.38C573.376 56.8867 573.87 56.5 574.51 56.22C575.163 55.94 575.91 55.8 576.75 55.8C578.003 55.8 579.01 56.12 579.77 56.76C580.543 57.3867 580.956 58.2467 581.01 59.34H578.73C578.69 58.8467 578.49 58.4533 578.13 58.16C577.77 57.8667 577.283 57.72 576.67 57.72C576.07 57.72 575.61 57.8333 575.29 58.06C574.97 58.2867 574.81 58.5867 574.81 58.96C574.81 59.2533 574.916 59.5 575.13 59.7C575.343 59.9 575.603 60.06 575.91 60.18C576.216 60.2867 576.67 60.4267 577.27 60.6C578.07 60.8133 578.723 61.0333 579.23 61.26C579.75 61.4733 580.196 61.7933 580.57 62.22C580.943 62.6467 581.136 63.2133 581.15 63.92C581.15 64.5467 580.976 65.1067 580.63 65.6C580.283 66.0933 579.79 66.48 579.15 66.76C578.523 67.04 577.783 67.18 576.93 67.18Z" fill="white"/>
<rect x="732" y="2.5" width="245" height="245" rx="17.5" fill="black" fill-opacity="0.06" stroke="url(#paint2_linear_14_157)" stroke-width="5"/>
<g filter="url(#filter2_d_14_157)">
<path d="M810.409 153.955C804.909 153.955 800.023 153.011 795.75 151.125C791.5 149.216 788.159 146.591 785.727 143.25C783.295 139.909 782.068 136.068 782.045 131.727H801.136C801.159 133.068 801.568 134.273 802.364 135.341C803.182 136.386 804.295 137.205 805.705 137.795C807.114 138.386 808.727 138.682 810.545 138.682C812.295 138.682 813.841 138.375 815.182 137.761C816.523 137.125 817.568 136.25 818.318 135.136C819.068 134.023 819.432 132.75 819.409 131.318C819.432 129.909 819 128.659 818.114 127.568C817.25 126.477 816.034 125.625 814.466 125.011C812.898 124.398 811.091 124.091 809.045 124.091H801.955V111H809.045C810.932 111 812.591 110.693 814.023 110.08C815.477 109.466 816.602 108.614 817.398 107.523C818.216 106.432 818.614 105.182 818.591 103.773C818.614 102.409 818.284 101.205 817.602 100.159C816.92 99.1136 815.966 98.2955 814.739 97.7045C813.534 97.1136 812.136 96.8182 810.545 96.8182C808.818 96.8182 807.273 97.125 805.909 97.7386C804.568 98.3523 803.511 99.2045 802.739 100.295C801.966 101.386 801.568 102.636 801.545 104.045H783.409C783.432 99.7727 784.602 96 786.92 92.7273C789.261 89.4545 792.466 86.8864 796.534 85.0227C800.602 83.1591 805.273 82.2273 810.545 82.2273C815.705 82.2273 820.261 83.1023 824.216 84.8523C828.193 86.6023 831.295 89.0114 833.523 92.0795C835.773 95.125 836.886 98.6136 836.864 102.545C836.909 106.455 835.568 109.659 832.841 112.159C830.136 114.659 826.705 116.136 822.545 116.591V117.136C828.182 117.75 832.42 119.477 835.261 122.318C838.102 125.136 839.5 128.682 839.455 132.955C839.477 137.045 838.25 140.67 835.773 143.83C833.318 146.989 829.898 149.466 825.511 151.261C821.148 153.057 816.114 153.955 810.409 153.955ZM887.872 139.909V136.227C887.872 133.273 888.509 130.545 889.781 128.045C891.077 125.545 892.952 123.534 895.406 122.011C897.861 120.489 900.849 119.727 904.372 119.727C907.986 119.727 911.02 120.477 913.474 121.977C915.952 123.477 917.827 125.477 919.099 127.977C920.372 130.477 921.009 133.227 921.009 136.227V139.909C921.009 142.864 920.361 145.591 919.065 148.091C917.793 150.591 915.918 152.602 913.44 154.125C910.963 155.648 907.94 156.409 904.372 156.409C900.804 156.409 897.793 155.648 895.338 154.125C892.884 152.602 891.02 150.591 889.747 148.091C888.497 145.591 887.872 142.864 887.872 139.909ZM899.736 136.227V139.909C899.736 141.205 900.054 142.489 900.69 143.761C901.349 145.011 902.577 145.636 904.372 145.636C906.259 145.636 907.497 145.023 908.088 143.795C908.702 142.568 909.009 141.273 909.009 139.909V136.227C909.009 134.864 908.724 133.545 908.156 132.273C907.588 131 906.327 130.364 904.372 130.364C902.577 130.364 901.349 131 900.69 132.273C900.054 133.545 899.736 134.864 899.736 136.227ZM851.327 99.9545V96.2727C851.327 93.2727 851.974 90.5227 853.27 88.0227C854.588 85.5227 856.474 83.5227 858.929 82.0227C861.384 80.5227 864.349 79.7727 867.827 79.7727C871.44 79.7727 874.474 80.5227 876.929 82.0227C879.406 83.5227 881.281 85.5227 882.554 88.0227C883.827 90.5227 884.463 93.2727 884.463 96.2727V99.9545C884.463 102.955 883.815 105.693 882.52 108.17C881.247 110.648 879.372 112.625 876.895 114.102C874.418 115.58 871.395 116.318 867.827 116.318C864.259 116.318 861.247 115.568 858.793 114.068C856.338 112.568 854.474 110.58 853.202 108.102C851.952 105.625 851.327 102.909 851.327 99.9545ZM863.327 96.2727V99.9545C863.327 101.318 863.645 102.614 864.281 103.841C864.918 105.068 866.099 105.682 867.827 105.682C869.713 105.682 870.952 105.068 871.543 103.841C872.156 102.614 872.463 101.318 872.463 99.9545V96.2727C872.463 94.9091 872.179 93.5909 871.611 92.3182C871.043 91.0455 869.781 90.4091 867.827 90.4091C866.031 90.4091 864.827 91.0682 864.213 92.3864C863.622 93.6818 863.327 94.9773 863.327 96.2727ZM857.122 153L905.122 83.1818H914.804L866.804 153H857.122Z" fill="white"/>
</g>
<path d="M776.58 188H771.108L761.956 174.144V188H756.484V165.536H761.956L771.108 179.456V165.536H776.58V188ZM788.675 188.256C786.925 188.256 785.347 187.883 783.939 187.136C782.552 186.389 781.453 185.323 780.643 183.936C779.853 182.549 779.459 180.928 779.459 179.072C779.459 177.237 779.864 175.627 780.674 174.24C781.485 172.832 782.595 171.755 784.003 171.008C785.411 170.261 786.989 169.888 788.739 169.888C790.488 169.888 792.067 170.261 793.475 171.008C794.883 171.755 795.992 172.832 796.803 174.24C797.613 175.627 798.019 177.237 798.019 179.072C798.019 180.907 797.603 182.528 796.771 183.936C795.96 185.323 794.84 186.389 793.411 187.136C792.003 187.883 790.424 188.256 788.675 188.256ZM788.675 183.52C789.72 183.52 790.605 183.136 791.331 182.368C792.077 181.6 792.451 180.501 792.451 179.072C792.451 177.643 792.088 176.544 791.363 175.776C790.659 175.008 789.784 174.624 788.739 174.624C787.672 174.624 786.787 175.008 786.083 175.776C785.379 176.523 785.027 177.621 785.027 179.072C785.027 180.501 785.368 181.6 786.051 182.368C786.755 183.136 787.629 183.52 788.675 183.52ZM817.753 178.784C817.753 179.296 817.722 179.829 817.658 180.384H805.274C805.359 181.493 805.711 182.347 806.33 182.944C806.97 183.52 807.748 183.808 808.666 183.808C810.031 183.808 810.98 183.232 811.514 182.08H817.338C817.039 183.253 816.495 184.309 815.706 185.248C814.938 186.187 813.967 186.923 812.794 187.456C811.62 187.989 810.308 188.256 808.858 188.256C807.108 188.256 805.551 187.883 804.186 187.136C802.82 186.389 801.754 185.323 800.986 183.936C800.218 182.549 799.834 180.928 799.834 179.072C799.834 177.216 800.207 175.595 800.954 174.208C801.722 172.821 802.788 171.755 804.154 171.008C805.519 170.261 807.087 169.888 808.858 169.888C810.586 169.888 812.122 170.251 813.466 170.976C814.81 171.701 815.855 172.736 816.602 174.08C817.37 175.424 817.753 176.992 817.753 178.784ZM812.154 177.344C812.154 176.405 811.834 175.659 811.194 175.104C810.554 174.549 809.754 174.272 808.794 174.272C807.876 174.272 807.098 174.539 806.458 175.072C805.839 175.605 805.455 176.363 805.306 177.344H812.154ZM830.592 183.36V188H827.808C825.824 188 824.278 187.52 823.168 186.56C822.059 185.579 821.504 183.989 821.504 181.792V174.688H819.328V170.144H821.504V165.792H826.976V170.144H830.56V174.688H826.976V181.856C826.976 182.389 827.104 182.773 827.36 183.008C827.616 183.243 828.043 183.36 828.64 183.36H830.592ZM836.392 168.288C835.432 168.288 834.643 168.011 834.024 167.456C833.427 166.88 833.128 166.176 833.128 165.344C833.128 164.491 833.427 163.787 834.024 163.232C834.643 162.656 835.432 162.368 836.392 162.368C837.331 162.368 838.099 162.656 838.696 163.232C839.315 163.787 839.624 164.491 839.624 165.344C839.624 166.176 839.315 166.88 838.696 167.456C838.099 168.011 837.331 168.288 836.392 168.288ZM839.112 170.144V188H833.64V170.144H839.112ZM841.99 179.072C841.99 177.216 842.363 175.595 843.11 174.208C843.878 172.821 844.934 171.755 846.278 171.008C847.643 170.261 849.2 169.888 850.95 169.888C853.19 169.888 855.056 170.475 856.55 171.648C858.064 172.821 859.056 174.475 859.526 176.608H853.702C853.211 175.243 852.262 174.56 850.854 174.56C849.851 174.56 849.051 174.955 848.454 175.744C847.856 176.512 847.558 177.621 847.558 179.072C847.558 180.523 847.856 181.643 848.454 182.432C849.051 183.2 849.851 183.584 850.854 183.584C852.262 183.584 853.211 182.901 853.702 181.536H859.526C859.056 183.627 858.064 185.269 856.55 186.464C855.035 187.659 853.168 188.256 850.95 188.256C849.2 188.256 847.643 187.883 846.278 187.136C844.934 186.389 843.878 185.323 843.11 183.936C842.363 182.549 841.99 180.928 841.99 179.072ZM894.674 165.536V188H889.202V174.528L884.178 188H879.762L874.706 174.496V188H869.234V165.536H875.698L882.002 181.088L888.242 165.536H894.674ZM897.521 179.04C897.521 177.205 897.862 175.595 898.545 174.208C899.249 172.821 900.198 171.755 901.393 171.008C902.588 170.261 903.921 169.888 905.393 169.888C906.652 169.888 907.75 170.144 908.689 170.656C909.649 171.168 910.385 171.84 910.897 172.672V170.144H916.369V188H910.897V185.472C910.364 186.304 909.617 186.976 908.657 187.488C907.718 188 906.62 188.256 905.361 188.256C903.91 188.256 902.588 187.883 901.393 187.136C900.198 186.368 899.249 185.291 898.545 183.904C897.862 182.496 897.521 180.875 897.521 179.04ZM910.897 179.072C910.897 177.707 910.513 176.629 909.745 175.84C908.998 175.051 908.081 174.656 906.993 174.656C905.905 174.656 904.977 175.051 904.209 175.84C903.462 176.608 903.089 177.675 903.089 179.04C903.089 180.405 903.462 181.493 904.209 182.304C904.977 183.093 905.905 183.488 906.993 183.488C908.081 183.488 908.998 183.093 909.745 182.304C910.513 181.515 910.897 180.437 910.897 179.072ZM930.28 183.36V188H927.496C925.512 188 923.965 187.52 922.856 186.56C921.746 185.579 921.192 183.989 921.192 181.792V174.688H919.016V170.144H921.192V165.792H926.664V170.144H930.248V174.688H926.664V181.856C926.664 182.389 926.792 182.773 927.048 183.008C927.304 183.243 927.73 183.36 928.328 183.36H930.28ZM944.304 169.952C946.352 169.952 947.994 170.635 949.232 172C950.469 173.344 951.088 175.2 951.088 177.568V188H945.648V178.304C945.648 177.109 945.338 176.181 944.72 175.52C944.101 174.859 943.269 174.528 942.224 174.528C941.178 174.528 940.346 174.859 939.728 175.52C939.109 176.181 938.8 177.109 938.8 178.304V188H933.328V164.32H938.8V172.544C939.354 171.755 940.112 171.125 941.072 170.656C942.032 170.187 943.109 169.952 944.304 169.952Z" fill="white"/>
<path d="M845.98 53.1V54.96H842.28V67H840V54.96H836.28V53.1H845.98ZM853.069 67.18C852.029 67.18 851.089 66.9467 850.249 66.48C849.409 66 848.749 65.3333 848.269 64.48C847.789 63.6133 847.549 62.6133 847.549 61.48C847.549 60.36 847.796 59.3667 848.289 58.5C848.782 57.6333 849.456 56.9667 850.309 56.5C851.162 56.0333 852.116 55.8 853.169 55.8C854.222 55.8 855.176 56.0333 856.029 56.5C856.882 56.9667 857.556 57.6333 858.049 58.5C858.542 59.3667 858.789 60.36 858.789 61.48C858.789 62.6 858.536 63.5933 858.029 64.46C857.522 65.3267 856.829 66 855.949 66.48C855.082 66.9467 854.122 67.18 853.069 67.18ZM853.069 65.2C853.656 65.2 854.202 65.06 854.709 64.78C855.229 64.5 855.649 64.08 855.969 63.52C856.289 62.96 856.449 62.28 856.449 61.48C856.449 60.68 856.296 60.0067 855.989 59.46C855.682 58.9 855.276 58.48 854.769 58.2C854.262 57.92 853.716 57.78 853.129 57.78C852.542 57.78 851.996 57.92 851.489 58.2C850.996 58.48 850.602 58.9 850.309 59.46C850.016 60.0067 849.869 60.68 849.869 61.48C849.869 62.6667 850.169 63.5867 850.769 64.24C851.382 64.88 852.149 65.2 853.069 65.2ZM863.323 57.6C863.71 57.0933 864.236 56.6667 864.903 56.32C865.57 55.9733 866.323 55.8 867.163 55.8C868.123 55.8 868.996 56.04 869.783 56.52C870.583 56.9867 871.21 57.6467 871.663 58.5C872.116 59.3533 872.343 60.3333 872.343 61.44C872.343 62.5467 872.116 63.54 871.663 64.42C871.21 65.2867 870.583 65.9667 869.783 66.46C868.996 66.94 868.123 67.18 867.163 67.18C866.323 67.18 865.576 67.0133 864.923 66.68C864.27 66.3333 863.736 65.9067 863.323 65.4V72.24H861.043V55.98H863.323V57.6ZM870.023 61.44C870.023 60.68 869.863 60.0267 869.543 59.48C869.236 58.92 868.823 58.5 868.303 58.22C867.796 57.9267 867.25 57.78 866.663 57.78C866.09 57.78 865.543 57.9267 865.023 58.22C864.516 58.5133 864.103 58.94 863.783 59.5C863.476 60.06 863.323 60.72 863.323 61.48C863.323 62.24 863.476 62.9067 863.783 63.48C864.103 64.04 864.516 64.4667 865.023 64.76C865.543 65.0533 866.09 65.2 866.663 65.2C867.25 65.2 867.796 65.0533 868.303 64.76C868.823 64.4533 869.236 64.0133 869.543 63.44C869.863 62.8667 870.023 62.2 870.023 61.44Z" fill="white"/>
<defs>
<filter id="filter0_d_14_157" x="51.4091" y="79.7727" width="145.037" height="84.6365" filterUnits="userSpaceOnUse" color-interpolation-filters="sRGB">
<feFlood flood-opacity="0" result="BackgroundImageFix"/>
<feColorMatrix in="SourceAlpha" type="matrix" values="0 0 0 0 0 0 0 0 0 0 0 0 0 0 0 0 0 0 127 0" result="hardAlpha"/>
<feOffset dy="4"/>
<feGaussianBlur stdDeviation="2"/>
<feComposite in2="hardAlpha" operator="out"/>
<feColorMatrix type="matrix" values="0 0 0 0 0 0 0 0 0 0 0 0 0 0 0 0 0 0 0.25 0"/>
<feBlend mode="normal" in2="BackgroundImageFix" result="effect1_dropShadow_14_157"/>
<feBlend mode="normal" in="SourceGraphic" in2="effect1_dropShadow_14_157" result="shape"/>
</filter>
<filter id="filter1_d_14_157" x="381.227" y="86.0227" width="218" height="68.5681" filterUnits="userSpaceOnUse" color-interpolation-filters="sRGB">
<feFlood flood-opacity="0" result="BackgroundImageFix"/>
<feColorMatrix in="SourceAlpha" type="matrix" values="0 0 0 0 0 0 0 0 0 0 0 0 0 0 0 0 0 0 127 0" result="hardAlpha"/>
<feOffset dy="4"/>
<feGaussianBlur stdDeviation="2"/>
<feComposite in2="hardAlpha" operator="out"/>
<feColorMatrix type="matrix" values="0 0 0 0 0 0 0 0 0 0 0 0 0 0 0 0 0 0 0.25 0"/>
<feBlend mode="normal" in2="BackgroundImageFix" result="effect1_dropShadow_14_157"/>
<feBlend mode="normal" in="SourceGraphic" in2="effect1_dropShadow_14_157" result="shape"/>
</filter>
<filter id="filter2_d_14_157" x="778.045" y="79.7727" width="146.963" height="84.6365" filterUnits="userSpaceOnUse" color-interpolation-filters="sRGB">
<feFlood flood-opacity="0" result="BackgroundImageFix"/>
<feColorMatrix in="SourceAlpha" type="matrix" values="0 0 0 0 0 0 0 0 0 0 0 0 0 0 0 0 0 0 127 0" result="hardAlpha"/>
<feOffset dy="4"/>
<feGaussianBlur stdDeviation="2"/>
<feComposite in2="hardAlpha" operator="out"/>
<feColorMatrix type="matrix" values="0 0 0 0 0 0 0 0 0 0 0 0 0 0 0 0 0 0 0.25 0"/>
<feBlend mode="normal" in2="BackgroundImageFix" result="effect1_dropShadow_14_157"/>
<feBlend mode="normal" in="SourceGraphic" in2="effect1_dropShadow_14_157" result="shape"/>
</filter>
<linearGradient id="paint0_linear_14_157" x1="126.5" y1="0" x2="126.5" y2="250" gradientUnits="userSpaceOnUse">
<stop stop-color="#07A3FE"/>
<stop offset="1" stop-color="#02F997"/>
</linearGradient>
<linearGradient id="paint1_linear_14_157" x1="490.5" y1="0" x2="490.5" y2="250" gradientUnits="userSpaceOnUse">
<stop stop-color="#07A3FE"/>
<stop offset="1" stop-color="#02F997"/>
</linearGradient>
<linearGradient id="paint2_linear_14_157" x1="854.5" y1="0" x2="854.5" y2="250" gradientUnits="userSpaceOnUse">
<stop stop-color="#07A3FE"/>
<stop offset="1" stop-color="#02F997"/>
</linearGradient>
</defs>
</svg>
