<svg width="251" height="250" viewBox="0 0 251 250" fill="none" xmlns="http://www.w3.org/2000/svg">
<rect x="3" y="2.5" width="245" height="245" rx="17.5" fill="black" fill-opacity="0.06" stroke="url(#paint0_linear_14_159)" stroke-width="5"/>
<g filter="url(#filter0_d_14_159)">
<path d="M57.4091 82.2273C61.4773 82.2273 65.3295 82.875 68.9659 84.1705C72.6023 85.4432 75.8182 87.4545 78.6136 90.2045C81.4318 92.9545 83.6364 96.5455 85.2273 100.977C86.8409 105.386 87.6591 110.727 87.6818 117C87.7045 122.727 86.9886 127.875 85.5341 132.443C84.1023 136.989 82.0455 140.864 79.3636 144.068C76.7045 147.273 73.5 149.727 69.75 151.432C66.0227 153.114 61.8636 153.955 57.2727 153.955C52.1136 153.955 47.5795 152.966 43.6705 150.989C39.7614 149.011 36.6477 146.352 34.3295 143.011C32.0114 139.67 30.6591 135.955 30.2727 131.864H48.9545C49.4091 133.977 50.4091 135.511 51.9545 136.466C53.5 137.398 55.2727 137.864 57.2727 137.864C61.2727 137.864 64.1932 136.136 66.0341 132.682C67.8977 129.205 68.8409 124.568 68.8636 118.773H68.4545C67.5682 120.909 66.2273 122.739 64.4318 124.261C62.6364 125.784 60.5455 126.955 58.1591 127.773C55.7727 128.591 53.25 129 50.5909 129C46.3864 129 42.7045 128.057 39.5455 126.17C36.3864 124.261 33.9205 121.659 32.1477 118.364C30.375 115.045 29.4773 111.273 29.4545 107.045C29.4318 102.091 30.6023 97.75 32.9659 94.0227C35.3295 90.2955 38.6136 87.3977 42.8182 85.3295C47.0227 83.2614 51.8864 82.2273 57.4091 82.2273ZM57.5455 96.5455C55.6591 96.5455 53.9773 96.9773 52.5 97.8409C51.0455 98.7045 49.8977 99.875 49.0568 101.352C48.2386 102.83 47.8409 104.5 47.8636 106.364C47.8864 108.227 48.3068 109.898 49.125 111.375C49.9659 112.852 51.1023 114.023 52.5341 114.886C53.9886 115.75 55.6591 116.182 57.5455 116.182C58.9318 116.182 60.2159 115.943 61.3977 115.466C62.5795 114.966 63.6023 114.273 64.4659 113.386C65.3523 112.477 66.0341 111.432 66.5114 110.25C67.0114 109.045 67.25 107.75 67.2273 106.364C67.2045 104.5 66.7727 102.83 65.9318 101.352C65.0909 99.875 63.9432 98.7045 62.4886 97.8409C61.0341 96.9773 59.3864 96.5455 57.5455 96.5455ZM95.8551 153V139.364L121.901 117.818C123.628 116.386 125.105 115.045 126.332 113.795C127.582 112.523 128.537 111.216 129.196 109.875C129.878 108.534 130.219 107.045 130.219 105.409C130.219 103.614 129.832 102.08 129.06 100.807C128.31 99.5341 127.264 98.5568 125.923 97.875C124.582 97.1705 123.037 96.8182 121.287 96.8182C119.537 96.8182 117.991 97.1705 116.651 97.875C115.332 98.5795 114.31 99.6136 113.582 100.977C112.855 102.341 112.491 104 112.491 105.955H94.4915C94.4915 101.045 95.5938 96.8182 97.7983 93.2727C100.003 89.7273 103.116 87 107.139 85.0909C111.162 83.1818 115.878 82.2273 121.287 82.2273C126.878 82.2273 131.719 83.125 135.81 84.9205C139.923 86.6932 143.094 89.1932 145.321 92.4205C147.571 95.6477 148.696 99.4318 148.696 103.773C148.696 106.455 148.139 109.125 147.026 111.784C145.912 114.42 143.912 117.341 141.026 120.545C138.139 123.75 134.037 127.568 128.719 132L122.173 137.455V137.864H149.446V153H95.8551ZM197.872 139.909V136.227C197.872 133.273 198.509 130.545 199.781 128.045C201.077 125.545 202.952 123.534 205.406 122.011C207.861 120.489 210.849 119.727 214.372 119.727C217.986 119.727 221.02 120.477 223.474 121.977C225.952 123.477 227.827 125.477 229.099 127.977C230.372 130.477 231.009 133.227 231.009 136.227V139.909C231.009 142.864 230.361 145.591 229.065 148.091C227.793 150.591 225.918 152.602 223.44 154.125C220.963 155.648 217.94 156.409 214.372 156.409C210.804 156.409 207.793 155.648 205.338 154.125C202.884 152.602 201.02 150.591 199.747 148.091C198.497 145.591 197.872 142.864 197.872 139.909ZM209.736 136.227V139.909C209.736 141.205 210.054 142.489 210.69 143.761C211.349 145.011 212.577 145.636 214.372 145.636C216.259 145.636 217.497 145.023 218.088 143.795C218.702 142.568 219.009 141.273 219.009 139.909V136.227C219.009 134.864 218.724 133.545 218.156 132.273C217.588 131 216.327 130.364 214.372 130.364C212.577 130.364 211.349 131 210.69 132.273C210.054 133.545 209.736 134.864 209.736 136.227ZM161.327 99.9545V96.2727C161.327 93.2727 161.974 90.5227 163.27 88.0227C164.588 85.5227 166.474 83.5227 168.929 82.0227C171.384 80.5227 174.349 79.7727 177.827 79.7727C181.44 79.7727 184.474 80.5227 186.929 82.0227C189.406 83.5227 191.281 85.5227 192.554 88.0227C193.827 90.5227 194.463 93.2727 194.463 96.2727V99.9545C194.463 102.955 193.815 105.693 192.52 108.17C191.247 110.648 189.372 112.625 186.895 114.102C184.418 115.58 181.395 116.318 177.827 116.318C174.259 116.318 171.247 115.568 168.793 114.068C166.338 112.568 164.474 110.58 163.202 108.102C161.952 105.625 161.327 102.909 161.327 99.9545ZM173.327 96.2727V99.9545C173.327 101.318 173.645 102.614 174.281 103.841C174.918 105.068 176.099 105.682 177.827 105.682C179.713 105.682 180.952 105.068 181.543 103.841C182.156 102.614 182.463 101.318 182.463 99.9545V96.2727C182.463 94.9091 182.179 93.5909 181.611 92.3182C181.043 91.0455 179.781 90.4091 177.827 90.4091C176.031 90.4091 174.827 91.0682 174.213 92.3864C173.622 93.6818 173.327 94.9773 173.327 96.2727ZM167.122 153L215.122 83.1818H224.804L176.804 153H167.122Z" fill="white"/>
</g>
<path d="M100.62 193L95.364 183.46H93.888V193H87.732V167.728H98.064C100.056 167.728 101.748 168.076 103.14 168.772C104.556 169.468 105.612 170.428 106.308 171.652C107.004 172.852 107.352 174.196 107.352 175.684C107.352 177.364 106.872 178.864 105.912 180.184C104.976 181.504 103.584 182.44 101.736 182.992L107.568 193H100.62ZM93.888 179.104H97.704C98.832 179.104 99.672 178.828 100.224 178.276C100.8 177.724 101.088 176.944 101.088 175.936C101.088 174.976 100.8 174.22 100.224 173.668C99.672 173.116 98.832 172.84 97.704 172.84H93.888V179.104ZM120.36 193.252C118.512 193.252 116.856 192.952 115.392 192.352C113.928 191.752 112.752 190.864 111.864 189.688C111 188.512 110.544 187.096 110.496 185.44H117.048C117.144 186.376 117.468 187.096 118.02 187.6C118.572 188.08 119.292 188.32 120.18 188.32C121.092 188.32 121.812 188.116 122.34 187.708C122.868 187.276 123.132 186.688 123.132 185.944C123.132 185.32 122.916 184.804 122.484 184.396C122.076 183.988 121.56 183.652 120.936 183.388C120.336 183.124 119.472 182.824 118.344 182.488C116.712 181.984 115.38 181.48 114.348 180.976C113.316 180.472 112.428 179.728 111.684 178.744C110.94 177.76 110.568 176.476 110.568 174.892C110.568 172.54 111.42 170.704 113.124 169.384C114.828 168.04 117.048 167.368 119.784 167.368C122.568 167.368 124.812 168.04 126.516 169.384C128.22 170.704 129.132 172.552 129.252 174.928H122.592C122.544 174.112 122.244 173.476 121.692 173.02C121.14 172.54 120.432 172.3 119.568 172.3C118.824 172.3 118.224 172.504 117.768 172.912C117.312 173.296 117.084 173.86 117.084 174.604C117.084 175.42 117.468 176.056 118.236 176.512C119.004 176.968 120.204 177.46 121.836 177.988C123.468 178.54 124.788 179.068 125.796 179.572C126.828 180.076 127.716 180.808 128.46 181.768C129.204 182.728 129.576 183.964 129.576 185.476C129.576 186.916 129.204 188.224 128.46 189.4C127.74 190.576 126.684 191.512 125.292 192.208C123.9 192.904 122.256 193.252 120.36 193.252ZM161.985 167.728V193H155.829V177.844L150.177 193H145.209L139.521 177.808V193H133.365V167.728H140.637L147.729 185.224L154.749 167.728H161.985Z" fill="white"/>
<path d="M109.28 53.1V67H107V53.1H109.28ZM126.913 53.1V67H124.633V57.48L120.393 67H118.813L114.553 57.48V67H112.273V53.1H114.733L119.613 64L124.473 53.1H126.913ZM129.15 60.02C129.15 58.66 129.463 57.44 130.09 56.36C130.73 55.28 131.59 54.44 132.67 53.84C133.763 53.2267 134.957 52.92 136.25 52.92C137.73 52.92 139.043 53.2867 140.19 54.02C141.35 54.74 142.19 55.7667 142.71 57.1H139.97C139.61 56.3667 139.11 55.82 138.47 55.46C137.83 55.1 137.09 54.92 136.25 54.92C135.33 54.92 134.51 55.1267 133.79 55.54C133.07 55.9533 132.503 56.5467 132.09 57.32C131.69 58.0933 131.49 58.9933 131.49 60.02C131.49 61.0467 131.69 61.9467 132.09 62.72C132.503 63.4933 133.07 64.0933 133.79 64.52C134.51 64.9333 135.33 65.14 136.25 65.14C137.09 65.14 137.83 64.96 138.47 64.6C139.11 64.24 139.61 63.6933 139.97 62.96H142.71C142.19 64.2933 141.35 65.32 140.19 66.04C139.043 66.76 137.73 67.12 136.25 67.12C134.943 67.12 133.75 66.82 132.67 66.22C131.59 65.6067 130.73 64.76 130.09 63.68C129.463 62.6 129.15 61.38 129.15 60.02Z" fill="white"/>
<defs>
<filter id="filter0_d_14_159" x="25.4205" y="79.7727" width="209.588" height="84.6365" filterUnits="userSpaceOnUse" color-interpolation-filters="sRGB">
<feFlood flood-opacity="0" result="BackgroundImageFix"/>
<feColorMatrix in="SourceAlpha" type="matrix" values="0 0 0 0 0 0 0 0 0 0 0 0 0 0 0 0 0 0 127 0" result="hardAlpha"/>
<feOffset dy="4"/>
<feGaussianBlur stdDeviation="2"/>
<feComposite in2="hardAlpha" operator="out"/>
<feColorMatrix type="matrix" values="0 0 0 0 0 0 0 0 0 0 0 0 0 0 0 0 0 0 0.25 0"/>
<feBlend mode="normal" in2="BackgroundImageFix" result="effect1_dropShadow_14_159"/>
<feBlend mode="normal" in="SourceGraphic" in2="effect1_dropShadow_14_159" result="shape"/>
</filter>
<linearGradient id="paint0_linear_14_159" x1="125.5" y1="0" x2="125.5" y2="250" gradientUnits="userSpaceOnUse">
<stop stop-color="#07A3FE"/>
<stop offset="1" stop-color="#02F997"/>
</linearGradient>
</defs>
</svg>
