<svg width="258" height="258" viewBox="0 0 258 258" fill="none" xmlns="http://www.w3.org/2000/svg">
<g filter="url(#filter0_d_14_138)">
<rect x="6.5" y="2.5" width="245" height="245" rx="17.5" fill="black" fill-opacity="0.06" stroke="url(#paint0_linear_14_138)" stroke-width="5"/>
<g filter="url(#filter1_d_14_138)">
<path d="M49.9545 142.091V127.364L78.0455 83.1818H91.4091V102.818H83.7727L68.6364 126.818V127.364H110.091V142.091H49.9545ZM83.9091 153V137.591L84.3182 131.182V83.1818H102.045V153H83.9091ZM128.406 154.091C125.77 154.091 123.509 153.17 121.622 151.33C119.759 149.466 118.838 147.205 118.861 144.545C118.838 141.955 119.759 139.739 121.622 137.898C123.509 136.057 125.77 135.136 128.406 135.136C130.906 135.136 133.111 136.057 135.02 137.898C136.952 139.739 137.929 141.955 137.952 144.545C137.929 146.318 137.463 147.932 136.554 149.386C135.668 150.818 134.509 151.966 133.077 152.83C131.645 153.67 130.088 154.091 128.406 154.091ZM175.358 154.909C169.017 154.886 163.54 153.42 158.926 150.511C154.313 147.602 150.756 143.409 148.256 137.932C145.756 132.455 144.517 125.886 144.54 118.227C144.563 110.545 145.813 104.023 148.29 98.6591C150.79 93.2955 154.335 89.2159 158.926 86.4205C163.54 83.625 169.017 82.2273 175.358 82.2273C181.699 82.2273 187.176 83.6364 191.79 86.4545C196.403 89.25 199.96 93.3295 202.46 98.6932C204.96 104.057 206.199 110.568 206.176 118.227C206.176 125.932 204.926 132.523 202.426 138C199.926 143.477 196.369 147.67 191.756 150.58C187.165 153.466 181.699 154.909 175.358 154.909ZM175.358 139.5C178.631 139.5 181.313 137.795 183.403 134.386C185.517 130.955 186.563 125.568 186.54 118.227C186.54 113.432 186.063 109.511 185.108 106.466C184.153 103.42 182.835 101.17 181.153 99.7159C179.472 98.2386 177.54 97.5 175.358 97.5C172.085 97.5 169.415 99.1591 167.347 102.477C165.278 105.795 164.222 111.045 164.176 118.227C164.153 123.114 164.619 127.136 165.574 130.295C166.528 133.432 167.847 135.75 169.528 137.25C171.233 138.75 173.176 139.5 175.358 139.5Z" fill="white"/>
</g>
<path d="M109.008 179.72C108.552 178.88 107.892 178.244 107.028 177.812C106.188 177.356 105.192 177.128 104.04 177.128C102.048 177.128 100.452 177.788 99.252 179.108C98.052 180.404 97.452 182.144 97.452 184.328C97.452 186.656 98.076 188.48 99.324 189.8C100.596 191.096 102.336 191.744 104.544 191.744C106.056 191.744 107.328 191.36 108.36 190.592C109.416 189.824 110.184 188.72 110.664 187.28H102.852V182.744H116.244V188.468C115.788 190.004 115.008 191.432 113.904 192.752C112.824 194.072 111.444 195.14 109.764 195.956C108.084 196.772 106.188 197.18 104.076 197.18C101.58 197.18 99.348 196.64 97.38 195.56C95.436 194.456 93.912 192.932 92.808 190.988C91.728 189.044 91.188 186.824 91.188 184.328C91.188 181.832 91.728 179.612 92.808 177.668C93.912 175.7 95.436 174.176 97.38 173.096C99.324 171.992 101.544 171.44 104.04 171.44C107.064 171.44 109.608 172.172 111.672 173.636C113.76 175.1 115.14 177.128 115.812 179.72H109.008ZM138.914 179.864C138.914 181.328 138.578 182.672 137.906 183.896C137.234 185.096 136.202 186.068 134.81 186.812C133.418 187.556 131.69 187.928 129.626 187.928H125.81V197H119.654V171.728H129.626C131.642 171.728 133.346 172.076 134.738 172.772C136.13 173.468 137.174 174.428 137.87 175.652C138.566 176.876 138.914 178.28 138.914 179.864ZM129.158 183.032C130.334 183.032 131.21 182.756 131.786 182.204C132.362 181.652 132.65 180.872 132.65 179.864C132.65 178.856 132.362 178.076 131.786 177.524C131.21 176.972 130.334 176.696 129.158 176.696H125.81V183.032H129.158ZM157.851 192.536H148.419L146.907 197H140.463L149.607 171.728H156.735L165.879 197H159.363L157.851 192.536ZM156.267 187.784L153.135 178.532L150.039 187.784H156.267Z" fill="white"/>
<path d="M76.76 53.1V61.96C76.76 63.0133 77.0333 63.8067 77.58 64.34C78.14 64.8733 78.9133 65.14 79.9 65.14C80.9 65.14 81.6733 64.8733 82.22 64.34C82.78 63.8067 83.06 63.0133 83.06 61.96V53.1H85.34V61.92C85.34 63.0533 85.0933 64.0133 84.6 64.8C84.1067 65.5867 83.4467 66.1733 82.62 66.56C81.7933 66.9467 80.88 67.14 79.88 67.14C78.88 67.14 77.9667 66.9467 77.14 66.56C76.3267 66.1733 75.68 65.5867 75.2 64.8C74.72 64.0133 74.48 63.0533 74.48 61.92V53.1H76.76ZM93.8686 55.8C94.7353 55.8 95.5086 55.98 96.1886 56.34C96.8819 56.7 97.4219 57.2333 97.8086 57.94C98.1953 58.6467 98.3886 59.5 98.3886 60.5V67H96.1286V60.84C96.1286 59.8533 95.8819 59.1 95.3886 58.58C94.8953 58.0467 94.2219 57.78 93.3686 57.78C92.5153 57.78 91.8353 58.0467 91.3286 58.58C90.8353 59.1 90.5886 59.8533 90.5886 60.84V67H88.3086V55.98H90.5886V57.24C90.9619 56.7867 91.4353 56.4333 92.0086 56.18C92.5953 55.9267 93.2153 55.8 93.8686 55.8ZM116.097 55.98L112.677 67H110.277L108.057 58.86L105.837 67H103.437L99.9969 55.98H102.317L104.617 64.84L106.957 55.98H109.337L111.577 64.8L113.857 55.98H116.097ZM127.901 61.22C127.901 61.6333 127.874 62.0067 127.821 62.34H119.401C119.467 63.22 119.794 63.9267 120.381 64.46C120.967 64.9933 121.687 65.26 122.541 65.26C123.767 65.26 124.634 64.7467 125.141 63.72H127.601C127.267 64.7333 126.661 65.5667 125.781 66.22C124.914 66.86 123.834 67.18 122.541 67.18C121.487 67.18 120.541 66.9467 119.701 66.48C118.874 66 118.221 65.3333 117.741 64.48C117.274 63.6133 117.041 62.6133 117.041 61.48C117.041 60.3467 117.267 59.3533 117.721 58.5C118.187 57.6333 118.834 56.9667 119.661 56.5C120.501 56.0333 121.461 55.8 122.541 55.8C123.581 55.8 124.507 56.0267 125.321 56.48C126.134 56.9333 126.767 57.5733 127.221 58.4C127.674 59.2133 127.901 60.1533 127.901 61.22ZM125.521 60.5C125.507 59.66 125.207 58.9867 124.621 58.48C124.034 57.9733 123.307 57.72 122.441 57.72C121.654 57.72 120.981 57.9733 120.421 58.48C119.861 58.9733 119.527 59.6467 119.421 60.5H125.521ZM131.305 54.52C130.891 54.52 130.545 54.38 130.265 54.1C129.985 53.82 129.845 53.4733 129.845 53.06C129.845 52.6467 129.985 52.3 130.265 52.02C130.545 51.74 130.891 51.6 131.305 51.6C131.705 51.6 132.045 51.74 132.325 52.02C132.605 52.3 132.745 52.6467 132.745 53.06C132.745 53.4733 132.605 53.82 132.325 54.1C132.045 54.38 131.705 54.52 131.305 54.52ZM132.425 55.98V67H130.145V55.98H132.425ZM139.858 55.8C140.711 55.8 141.465 55.9733 142.118 56.32C142.785 56.6533 143.305 57.0733 143.678 57.58V55.98H145.978V67.18C145.978 68.1933 145.765 69.0933 145.338 69.88C144.911 70.68 144.291 71.3067 143.478 71.76C142.678 72.2133 141.718 72.44 140.598 72.44C139.105 72.44 137.865 72.0867 136.878 71.38C135.891 70.6867 135.331 69.74 135.198 68.54H137.458C137.631 69.1133 137.998 69.5733 138.558 69.92C139.131 70.28 139.811 70.46 140.598 70.46C141.518 70.46 142.258 70.18 142.818 69.62C143.391 69.06 143.678 68.2467 143.678 67.18V65.34C143.291 65.86 142.765 66.3 142.098 66.66C141.445 67.0067 140.698 67.18 139.858 67.18C138.898 67.18 138.018 66.94 137.218 66.46C136.431 65.9667 135.805 65.2867 135.338 64.42C134.885 63.54 134.658 62.5467 134.658 61.44C134.658 60.3333 134.885 59.3533 135.338 58.5C135.805 57.6467 136.431 56.9867 137.218 56.52C138.018 56.04 138.898 55.8 139.858 55.8ZM143.678 61.48C143.678 60.72 143.518 60.06 143.198 59.5C142.891 58.94 142.485 58.5133 141.978 58.22C141.471 57.9267 140.925 57.78 140.338 57.78C139.751 57.78 139.205 57.9267 138.698 58.22C138.191 58.5 137.778 58.92 137.458 59.48C137.151 60.0267 136.998 60.68 136.998 61.44C136.998 62.2 137.151 62.8667 137.458 63.44C137.778 64.0133 138.191 64.4533 138.698 64.76C139.218 65.0533 139.765 65.2 140.338 65.2C140.925 65.2 141.471 65.0533 141.978 64.76C142.485 64.4667 142.891 64.04 143.198 63.48C143.518 62.9067 143.678 62.24 143.678 61.48ZM154.673 55.8C155.513 55.8 156.259 55.98 156.913 56.34C157.579 56.7 158.099 57.2333 158.473 57.94C158.859 58.6467 159.053 59.5 159.053 60.5V67H156.793V60.84C156.793 59.8533 156.546 59.1 156.053 58.58C155.559 58.0467 154.886 57.78 154.033 57.78C153.179 57.78 152.499 58.0467 151.993 58.58C151.499 59.1 151.253 59.8533 151.253 60.84V67H148.973V52.2H151.253V57.26C151.639 56.7933 152.126 56.4333 152.713 56.18C153.313 55.9267 153.966 55.8 154.673 55.8ZM164.621 57.84V63.94C164.621 64.3533 164.714 64.6533 164.901 64.84C165.101 65.0133 165.434 65.1 165.901 65.1H167.301V67H165.501C164.474 67 163.688 66.76 163.141 66.28C162.594 65.8 162.321 65.02 162.321 63.94V57.84H161.021V55.98H162.321V53.24H164.621V55.98H167.301V57.84H164.621ZM179.502 61.22C179.502 61.6333 179.476 62.0067 179.422 62.34H171.002C171.069 63.22 171.396 63.9267 171.982 64.46C172.569 64.9933 173.289 65.26 174.142 65.26C175.369 65.26 176.236 64.7467 176.742 63.72H179.202C178.869 64.7333 178.262 65.5667 177.382 66.22C176.516 66.86 175.436 67.18 174.142 67.18C173.089 67.18 172.142 66.9467 171.302 66.48C170.476 66 169.822 65.3333 169.342 64.48C168.876 63.6133 168.642 62.6133 168.642 61.48C168.642 60.3467 168.869 59.3533 169.322 58.5C169.789 57.6333 170.436 56.9667 171.262 56.5C172.102 56.0333 173.062 55.8 174.142 55.8C175.182 55.8 176.109 56.0267 176.922 56.48C177.736 56.9333 178.369 57.5733 178.822 58.4C179.276 59.2133 179.502 60.1533 179.502 61.22ZM177.122 60.5C177.109 59.66 176.809 58.9867 176.222 58.48C175.636 57.9733 174.909 57.72 174.042 57.72C173.256 57.72 172.582 57.9733 172.022 58.48C171.462 58.9733 171.129 59.6467 171.022 60.5H177.122ZM180.986 61.44C180.986 60.3333 181.213 59.3533 181.666 58.5C182.133 57.6467 182.759 56.9867 183.546 56.52C184.346 56.04 185.233 55.8 186.206 55.8C186.926 55.8 187.633 55.96 188.326 56.28C189.033 56.5867 189.593 57 190.006 57.52V52.2H192.306V67H190.006V65.34C189.633 65.8733 189.113 66.3133 188.446 66.66C187.793 67.0067 187.039 67.18 186.186 67.18C185.226 67.18 184.346 66.94 183.546 66.46C182.759 65.9667 182.133 65.2867 181.666 64.42C181.213 63.54 180.986 62.5467 180.986 61.44ZM190.006 61.48C190.006 60.72 189.846 60.06 189.526 59.5C189.219 58.94 188.813 58.5133 188.306 58.22C187.799 57.9267 187.253 57.78 186.666 57.78C186.079 57.78 185.533 57.9267 185.026 58.22C184.519 58.5 184.106 58.92 183.786 59.48C183.479 60.0267 183.326 60.68 183.326 61.44C183.326 62.2 183.479 62.8667 183.786 63.44C184.106 64.0133 184.519 64.4533 185.026 64.76C185.546 65.0533 186.093 65.2 186.666 65.2C187.253 65.2 187.799 65.0533 188.306 64.76C188.813 64.4667 189.219 64.04 189.526 63.48C189.846 62.9067 190.006 62.24 190.006 61.48Z" fill="white"/>
</g>
<defs>
<filter id="filter0_d_14_138" x="0" y="0" width="258" height="258" filterUnits="userSpaceOnUse" color-interpolation-filters="sRGB">
<feFlood flood-opacity="0" result="BackgroundImageFix"/>
<feColorMatrix in="SourceAlpha" type="matrix" values="0 0 0 0 0 0 0 0 0 0 0 0 0 0 0 0 0 0 127 0" result="hardAlpha"/>
<feOffset dy="4"/>
<feGaussianBlur stdDeviation="2"/>
<feComposite in2="hardAlpha" operator="out"/>
<feColorMatrix type="matrix" values="0 0 0 0 0 0 0 0 0 0 0 0 0 0 0 0 0 0 0.25 0"/>
<feBlend mode="normal" in2="BackgroundImageFix" result="effect1_dropShadow_14_138"/>
<feBlend mode="normal" in="SourceGraphic" in2="effect1_dropShadow_14_138" result="shape"/>
</filter>
<filter id="filter1_d_14_138" x="45.9546" y="82.2273" width="164.256" height="80.6818" filterUnits="userSpaceOnUse" color-interpolation-filters="sRGB">
<feFlood flood-opacity="0" result="BackgroundImageFix"/>
<feColorMatrix in="SourceAlpha" type="matrix" values="0 0 0 0 0 0 0 0 0 0 0 0 0 0 0 0 0 0 127 0" result="hardAlpha"/>
<feOffset dy="4"/>
<feGaussianBlur stdDeviation="2"/>
<feComposite in2="hardAlpha" operator="out"/>
<feColorMatrix type="matrix" values="0 0 0 0 0 0 0 0 0 0 0 0 0 0 0 0 0 0 0.25 0"/>
<feBlend mode="normal" in2="BackgroundImageFix" result="effect1_dropShadow_14_138"/>
<feBlend mode="normal" in="SourceGraphic" in2="effect1_dropShadow_14_138" result="shape"/>
</filter>
<linearGradient id="paint0_linear_14_138" x1="129" y1="0" x2="129" y2="250" gradientUnits="userSpaceOnUse">
<stop stop-color="#07A3FE"/>
<stop offset="1" stop-color="#02F997"/>
</linearGradient>
</defs>
</svg>
