<svg width="251" height="250" viewBox="0 0 251 250" fill="none" xmlns="http://www.w3.org/2000/svg">
<rect x="3" y="2.5" width="245" height="245" rx="17.5" fill="black" fill-opacity="0.06" stroke="url(#paint0_linear_14_171)" stroke-width="5"/>
<g filter="url(#filter0_d_14_171)">
<path d="M21.3636 145V133.636L43.0682 115.682C44.5076 114.489 45.7386 113.371 46.7614 112.33C47.803 111.269 48.5985 110.18 49.1477 109.062C49.7159 107.945 50 106.705 50 105.341C50 103.845 49.678 102.566 49.0341 101.506C48.4091 100.445 47.5379 99.6307 46.4205 99.0625C45.303 98.4754 44.0152 98.1818 42.5568 98.1818C41.0985 98.1818 39.8106 98.4754 38.6932 99.0625C37.5947 99.6496 36.7424 100.511 36.1364 101.648C35.5303 102.784 35.2273 104.167 35.2273 105.795H20.2273C20.2273 101.705 21.1458 98.1818 22.983 95.2273C24.8201 92.2727 27.4148 90 30.767 88.4091C34.1193 86.8182 38.0492 86.0227 42.5568 86.0227C47.2159 86.0227 51.25 86.7708 54.6591 88.267C58.0871 89.7443 60.7292 91.8277 62.5852 94.517C64.4602 97.2064 65.3977 100.36 65.3977 103.977C65.3977 106.212 64.9337 108.437 64.0057 110.653C63.0777 112.85 61.411 115.284 59.0057 117.955C56.6004 120.625 53.1818 123.807 48.75 127.5L43.2955 132.045V132.386H66.0227V145H21.3636ZM98.4233 146.591C93.1392 146.572 88.5748 145.35 84.7301 142.926C80.8854 140.502 77.9214 137.008 75.8381 132.443C73.7547 127.879 72.7225 122.405 72.7415 116.023C72.7604 109.621 73.8021 104.186 75.8665 99.7159C77.9498 95.2462 80.9044 91.8466 84.7301 89.517C88.5748 87.1875 93.1392 86.0227 98.4233 86.0227C103.707 86.0227 108.272 87.197 112.116 89.5455C115.961 91.875 118.925 95.2746 121.009 99.7443C123.092 104.214 124.124 109.64 124.105 116.023C124.105 122.443 123.063 127.936 120.98 132.5C118.897 137.064 115.933 140.559 112.088 142.983C108.262 145.388 103.707 146.591 98.4233 146.591ZM98.4233 133.75C101.151 133.75 103.385 132.33 105.128 129.489C106.889 126.629 107.76 122.14 107.741 116.023C107.741 112.027 107.344 108.759 106.548 106.222C105.753 103.684 104.654 101.809 103.253 100.597C101.851 99.3655 100.241 98.75 98.4233 98.75C95.696 98.75 93.4706 100.133 91.7472 102.898C90.0237 105.663 89.143 110.038 89.1051 116.023C89.0862 120.095 89.4744 123.447 90.2699 126.08C91.0653 128.693 92.1638 130.625 93.5653 131.875C94.9858 133.125 96.6051 133.75 98.4233 133.75ZM131.52 145V133.636L153.224 115.682C154.664 114.489 155.895 113.371 156.918 112.33C157.959 111.269 158.755 110.18 159.304 109.062C159.872 107.945 160.156 106.705 160.156 105.341C160.156 103.845 159.834 102.566 159.19 101.506C158.565 100.445 157.694 99.6307 156.577 99.0625C155.459 98.4754 154.171 98.1818 152.713 98.1818C151.255 98.1818 149.967 98.4754 148.849 99.0625C147.751 99.6496 146.899 100.511 146.293 101.648C145.687 102.784 145.384 104.167 145.384 105.795H130.384C130.384 101.705 131.302 98.1818 133.139 95.2273C134.976 92.2727 137.571 90 140.923 88.4091C144.276 86.8182 148.205 86.0227 152.713 86.0227C157.372 86.0227 161.406 86.7708 164.815 88.267C168.243 89.7443 170.885 91.8277 172.741 94.517C174.616 97.2064 175.554 100.36 175.554 103.977C175.554 106.212 175.09 108.437 174.162 110.653C173.234 112.85 171.567 115.284 169.162 117.955C166.757 120.625 163.338 123.807 158.906 127.5L153.452 132.045V132.386H176.179V145H131.52ZM183.239 145V133.636L204.943 115.682C206.383 114.489 207.614 113.371 208.636 112.33C209.678 111.269 210.473 110.18 211.023 109.062C211.591 107.945 211.875 106.705 211.875 105.341C211.875 103.845 211.553 102.566 210.909 101.506C210.284 100.445 209.413 99.6307 208.295 99.0625C207.178 98.4754 205.89 98.1818 204.432 98.1818C202.973 98.1818 201.686 98.4754 200.568 99.0625C199.47 99.6496 198.617 100.511 198.011 101.648C197.405 102.784 197.102 104.167 197.102 105.795H182.102C182.102 101.705 183.021 98.1818 184.858 95.2273C186.695 92.2727 189.29 90 192.642 88.4091C195.994 86.8182 199.924 86.0227 204.432 86.0227C209.091 86.0227 213.125 86.7708 216.534 88.267C219.962 89.7443 222.604 91.8277 224.46 94.517C226.335 97.2064 227.273 100.36 227.273 103.977C227.273 106.212 226.809 108.437 225.881 110.653C224.953 112.85 223.286 115.284 220.881 117.955C218.475 120.625 215.057 123.807 210.625 127.5L205.17 132.045V132.386H227.898V145H183.239Z" fill="white"/>
</g>
<path d="M46.604 171.768C46.604 173.069 46.3053 174.264 45.708 175.352C45.1107 176.419 44.1933 177.283 42.956 177.944C41.7187 178.605 40.1827 178.936 38.348 178.936H34.956V187H29.484V164.536H38.348C40.14 164.536 41.6547 164.845 42.892 165.464C44.1293 166.083 45.0573 166.936 45.676 168.024C46.2947 169.112 46.604 170.36 46.604 171.768ZM37.932 174.584C38.9773 174.584 39.756 174.339 40.268 173.848C40.78 173.357 41.036 172.664 41.036 171.768C41.036 170.872 40.78 170.179 40.268 169.688C39.756 169.197 38.9773 168.952 37.932 168.952H34.956V174.584H37.932ZM48.3648 178.04C48.3648 176.205 48.7061 174.595 49.3888 173.208C50.0928 171.821 51.0421 170.755 52.2368 170.008C53.4314 169.261 54.7648 168.888 56.2368 168.888C57.4954 168.888 58.5941 169.144 59.5328 169.656C60.4928 170.168 61.2288 170.84 61.7408 171.672V169.144H67.2128V187H61.7408V184.472C61.2074 185.304 60.4608 185.976 59.5008 186.488C58.5621 187 57.4634 187.256 56.2048 187.256C54.7541 187.256 53.4314 186.883 52.2368 186.136C51.0421 185.368 50.0928 184.291 49.3888 182.904C48.7061 181.496 48.3648 179.875 48.3648 178.04ZM61.7408 178.072C61.7408 176.707 61.3568 175.629 60.5888 174.84C59.8421 174.051 58.9248 173.656 57.8368 173.656C56.7488 173.656 55.8208 174.051 55.0528 174.84C54.3061 175.608 53.9328 176.675 53.9328 178.04C53.9328 179.405 54.3061 180.493 55.0528 181.304C55.8208 182.093 56.7488 182.488 57.8368 182.488C58.9248 182.488 59.8421 182.093 60.5888 181.304C61.3568 180.515 61.7408 179.437 61.7408 178.072ZM76.6435 172.12C77.2835 171.139 78.0835 170.371 79.0435 169.816C80.0035 169.24 81.0702 168.952 82.2435 168.952V174.744H80.7395C79.3742 174.744 78.3502 175.043 77.6675 175.64C76.9848 176.216 76.6435 177.24 76.6435 178.712V187H71.1715V169.144H76.6435V172.12ZM94.811 182.36V187H92.027C90.043 187 88.4963 186.52 87.387 185.56C86.2777 184.579 85.723 182.989 85.723 180.792V173.688H83.547V169.144H85.723V164.792H91.195V169.144H94.779V173.688H91.195V180.856C91.195 181.389 91.323 181.773 91.579 182.008C91.835 182.243 92.2617 182.36 92.859 182.36H94.811ZM100.611 167.288C99.651 167.288 98.8617 167.011 98.243 166.456C97.6457 165.88 97.347 165.176 97.347 164.344C97.347 163.491 97.6457 162.787 98.243 162.232C98.8617 161.656 99.651 161.368 100.611 161.368C101.55 161.368 102.318 161.656 102.915 162.232C103.534 162.787 103.843 163.491 103.843 164.344C103.843 165.176 103.534 165.88 102.915 166.456C102.318 167.011 101.55 167.288 100.611 167.288ZM103.331 169.144V187H97.859V169.144H103.331ZM106.209 178.072C106.209 176.216 106.582 174.595 107.329 173.208C108.097 171.821 109.153 170.755 110.497 170.008C111.862 169.261 113.419 168.888 115.169 168.888C117.409 168.888 119.275 169.475 120.769 170.648C122.283 171.821 123.275 173.475 123.745 175.608H117.921C117.43 174.243 116.481 173.56 115.073 173.56C114.07 173.56 113.27 173.955 112.673 174.744C112.075 175.512 111.777 176.621 111.777 178.072C111.777 179.523 112.075 180.643 112.673 181.432C113.27 182.2 114.07 182.584 115.073 182.584C116.481 182.584 117.43 181.901 117.921 180.536H123.745C123.275 182.627 122.283 184.269 120.769 185.464C119.254 186.659 117.387 187.256 115.169 187.256C113.419 187.256 111.862 186.883 110.497 186.136C109.153 185.389 108.097 184.323 107.329 182.936C106.582 181.549 106.209 179.928 106.209 178.072ZM129.424 167.288C128.464 167.288 127.674 167.011 127.056 166.456C126.458 165.88 126.16 165.176 126.16 164.344C126.16 163.491 126.458 162.787 127.056 162.232C127.674 161.656 128.464 161.368 129.424 161.368C130.362 161.368 131.13 161.656 131.728 162.232C132.346 162.787 132.656 163.491 132.656 164.344C132.656 165.176 132.346 165.88 131.728 166.456C131.13 167.011 130.362 167.288 129.424 167.288ZM132.144 169.144V187H126.672V169.144H132.144ZM141.581 171.672C142.114 170.84 142.85 170.168 143.789 169.656C144.728 169.144 145.826 168.888 147.085 168.888C148.557 168.888 149.89 169.261 151.085 170.008C152.28 170.755 153.218 171.821 153.901 173.208C154.605 174.595 154.957 176.205 154.957 178.04C154.957 179.875 154.605 181.496 153.901 182.904C153.218 184.291 152.28 185.368 151.085 186.136C149.89 186.883 148.557 187.256 147.085 187.256C145.848 187.256 144.749 187 143.789 186.488C142.85 185.976 142.114 185.315 141.581 184.504V195.512H136.109V169.144H141.581V171.672ZM149.389 178.04C149.389 176.675 149.005 175.608 148.237 174.84C147.49 174.051 146.562 173.656 145.453 173.656C144.365 173.656 143.437 174.051 142.669 174.84C141.922 175.629 141.549 176.707 141.549 178.072C141.549 179.437 141.922 180.515 142.669 181.304C143.437 182.093 144.365 182.488 145.453 182.488C146.541 182.488 147.469 182.093 148.237 181.304C149.005 180.493 149.389 179.405 149.389 178.04ZM156.74 178.04C156.74 176.205 157.081 174.595 157.764 173.208C158.468 171.821 159.417 170.755 160.612 170.008C161.806 169.261 163.14 168.888 164.612 168.888C165.87 168.888 166.969 169.144 167.908 169.656C168.868 170.168 169.604 170.84 170.116 171.672V169.144H175.588V187H170.116V184.472C169.582 185.304 168.836 185.976 167.876 186.488C166.937 187 165.838 187.256 164.58 187.256C163.129 187.256 161.806 186.883 160.612 186.136C159.417 185.368 158.468 184.291 157.764 182.904C157.081 181.496 156.74 179.875 156.74 178.04ZM170.116 178.072C170.116 176.707 169.732 175.629 168.964 174.84C168.217 174.051 167.3 173.656 166.212 173.656C165.124 173.656 164.196 174.051 163.428 174.84C162.681 175.608 162.308 176.675 162.308 178.04C162.308 179.405 162.681 180.493 163.428 181.304C164.196 182.093 165.124 182.488 166.212 182.488C167.3 182.488 168.217 182.093 168.964 181.304C169.732 180.515 170.116 179.437 170.116 178.072ZM190.427 168.952C192.517 168.952 194.181 169.635 195.419 171C196.677 172.344 197.307 174.2 197.307 176.568V187H191.867V177.304C191.867 176.109 191.557 175.181 190.939 174.52C190.32 173.859 189.488 173.528 188.443 173.528C187.397 173.528 186.565 173.859 185.947 174.52C185.328 175.181 185.019 176.109 185.019 177.304V187H179.547V169.144H185.019V171.512C185.573 170.723 186.32 170.104 187.259 169.656C188.197 169.187 189.253 168.952 190.427 168.952ZM211.061 182.36V187H208.277C206.293 187 204.746 186.52 203.637 185.56C202.528 184.579 201.973 182.989 201.973 180.792V173.688H199.797V169.144H201.973V164.792H207.445V169.144H211.029V173.688H207.445V180.856C207.445 181.389 207.573 181.773 207.829 182.008C208.085 182.243 208.512 182.36 209.109 182.36H211.061Z" fill="white"/>
<path d="M102.44 59.86C103.187 59.9933 103.82 60.3867 104.34 61.04C104.86 61.6933 105.12 62.4333 105.12 63.26C105.12 63.9667 104.933 64.6067 104.56 65.18C104.2 65.74 103.673 66.1867 102.98 66.52C102.287 66.84 101.48 67 100.56 67H95V53.1H100.3C101.247 53.1 102.06 53.26 102.74 53.58C103.42 53.9 103.933 54.3333 104.28 54.88C104.627 55.4133 104.8 56.0133 104.8 56.68C104.8 57.48 104.587 58.1467 104.16 58.68C103.733 59.2133 103.16 59.6067 102.44 59.86ZM97.28 58.94H100.1C100.847 58.94 101.427 58.7733 101.84 58.44C102.267 58.0933 102.48 57.6 102.48 56.96C102.48 56.3333 102.267 55.8467 101.84 55.5C101.427 55.14 100.847 54.96 100.1 54.96H97.28V58.94ZM100.36 65.14C101.133 65.14 101.74 64.9533 102.18 64.58C102.62 64.2067 102.84 63.6867 102.84 63.02C102.84 62.34 102.607 61.8 102.14 61.4C101.673 61 101.053 60.8 100.28 60.8H97.28V65.14H100.36ZM120.938 55.8C121.804 55.8 122.578 55.98 123.258 56.34C123.951 56.7 124.491 57.2333 124.878 57.94C125.278 58.6467 125.478 59.5 125.478 60.5V67H123.218V60.84C123.218 59.8533 122.971 59.1 122.478 58.58C121.984 58.0467 121.311 57.78 120.458 57.78C119.604 57.78 118.924 58.0467 118.418 58.58C117.924 59.1 117.678 59.8533 117.678 60.84V67H115.418V60.84C115.418 59.8533 115.171 59.1 114.678 58.58C114.184 58.0467 113.511 57.78 112.658 57.78C111.804 57.78 111.124 58.0467 110.618 58.58C110.124 59.1 109.878 59.8533 109.878 60.84V67H107.598V55.98H109.878V57.24C110.251 56.7867 110.724 56.4333 111.298 56.18C111.871 55.9267 112.484 55.8 113.138 55.8C114.018 55.8 114.804 55.9867 115.498 56.36C116.191 56.7333 116.724 57.2733 117.098 57.98C117.431 57.3133 117.951 56.7867 118.658 56.4C119.364 56 120.124 55.8 120.938 55.8ZM143.019 53.1V67H140.739V57.48L136.499 67H134.919L130.659 57.48V67H128.379V53.1H130.839L135.719 64L140.579 53.1H143.019ZM154.996 53.1V54.96H151.296V67H149.016V54.96H145.296V53.1H154.996Z" fill="white"/>
<defs>
<filter id="filter0_d_14_171" x="16.2273" y="86.0227" width="215.67" height="68.5681" filterUnits="userSpaceOnUse" color-interpolation-filters="sRGB">
<feFlood flood-opacity="0" result="BackgroundImageFix"/>
<feColorMatrix in="SourceAlpha" type="matrix" values="0 0 0 0 0 0 0 0 0 0 0 0 0 0 0 0 0 0 127 0" result="hardAlpha"/>
<feOffset dy="4"/>
<feGaussianBlur stdDeviation="2"/>
<feComposite in2="hardAlpha" operator="out"/>
<feColorMatrix type="matrix" values="0 0 0 0 0 0 0 0 0 0 0 0 0 0 0 0 0 0 0.25 0"/>
<feBlend mode="normal" in2="BackgroundImageFix" result="effect1_dropShadow_14_171"/>
<feBlend mode="normal" in="SourceGraphic" in2="effect1_dropShadow_14_171" result="shape"/>
</filter>
<linearGradient id="paint0_linear_14_171" x1="125.5" y1="0" x2="125.5" y2="250" gradientUnits="userSpaceOnUse">
<stop stop-color="#07A3FE"/>
<stop offset="1" stop-color="#02F997"/>
</linearGradient>
</defs>
</svg>
