<svg width="250" height="250" viewBox="0 0 250 250" fill="none" xmlns="http://www.w3.org/2000/svg">
<rect x="2.5" y="2.5" width="245" height="245" rx="17.5" fill="black" fill-opacity="0.06" stroke="url(#paint0_linear_69_4)" stroke-width="5"/>
<path d="M82.5909 153.955C77.2273 153.955 72.4659 153.011 68.3068 151.125C64.1705 149.216 60.9091 146.591 58.5227 143.25C56.1591 139.909 54.9545 136.068 54.9091 131.727H73.3182C73.3864 134.136 74.3182 136.057 76.1136 137.489C77.9318 138.92 80.0909 139.636 82.5909 139.636C84.5227 139.636 86.2273 139.227 87.7045 138.409C89.1818 137.568 90.3409 136.386 91.1818 134.864C92.0227 133.341 92.4318 131.568 92.4091 129.545C92.4318 127.5 92.0227 125.727 91.1818 124.227C90.3409 122.705 89.1818 121.534 87.7045 120.716C86.2273 119.875 84.5227 119.455 82.5909 119.455C80.5909 119.455 78.7386 119.943 77.0341 120.92C75.3523 121.875 74.1136 123.205 73.3182 124.909L56.6818 121.636L59.4091 83.1818H106.318V98.3182H74.9545L73.5909 113.727H74C75.0909 111.614 76.9773 109.864 79.6591 108.477C82.3409 107.068 85.4545 106.364 89 106.364C93.1591 106.364 96.8636 107.33 100.114 109.261C103.386 111.193 105.966 113.864 107.852 117.273C109.761 120.659 110.705 124.568 110.682 129C110.705 133.864 109.545 138.182 107.205 141.955C104.886 145.705 101.625 148.648 97.4205 150.784C93.2159 152.898 88.2727 153.955 82.5909 153.955ZM127.25 154.091C124.614 154.091 122.352 153.17 120.466 151.33C118.602 149.466 117.682 147.205 117.705 144.545C117.682 141.955 118.602 139.739 120.466 137.898C122.352 136.057 124.614 135.136 127.25 135.136C129.75 135.136 131.955 136.057 133.864 137.898C135.795 139.739 136.773 141.955 136.795 144.545C136.773 146.318 136.307 147.932 135.398 149.386C134.511 150.818 133.352 151.966 131.92 152.83C130.489 153.67 128.932 154.091 127.25 154.091ZM174.202 154.909C167.861 154.886 162.384 153.42 157.77 150.511C153.156 147.602 149.599 143.409 147.099 137.932C144.599 132.455 143.361 125.886 143.384 118.227C143.406 110.545 144.656 104.023 147.134 98.6591C149.634 93.2955 153.179 89.2159 157.77 86.4205C162.384 83.625 167.861 82.2273 174.202 82.2273C180.543 82.2273 186.02 83.6364 190.634 86.4545C195.247 89.25 198.804 93.3295 201.304 98.6932C203.804 104.057 205.043 110.568 205.02 118.227C205.02 125.932 203.77 132.523 201.27 138C198.77 143.477 195.213 147.67 190.599 150.58C186.009 153.466 180.543 154.909 174.202 154.909ZM174.202 139.5C177.474 139.5 180.156 137.795 182.247 134.386C184.361 130.955 185.406 125.568 185.384 118.227C185.384 113.432 184.906 109.511 183.952 106.466C182.997 103.42 181.679 101.17 179.997 99.7159C178.315 98.2386 176.384 97.5 174.202 97.5C170.929 97.5 168.259 99.1591 166.19 102.477C164.122 105.795 163.065 111.045 163.02 118.227C162.997 123.114 163.463 127.136 164.418 130.295C165.372 133.432 166.69 135.75 168.372 137.25C170.077 138.75 172.02 139.5 174.202 139.5Z" fill="white"/>
<path d="M99.904 167.728L91.156 184.648V193H85V184.648L76.252 167.728H83.236L88.132 178.312L92.992 167.728H99.904ZM121.32 182.632C121.32 183.208 121.284 183.808 121.212 184.432H107.28C107.376 185.68 107.772 186.64 108.468 187.312C109.188 187.96 110.064 188.284 111.096 188.284C112.632 188.284 113.7 187.636 114.3 186.34H120.852C120.516 187.66 119.904 188.848 119.016 189.904C118.152 190.96 117.06 191.788 115.74 192.388C114.42 192.988 112.944 193.288 111.312 193.288C109.344 193.288 107.592 192.868 106.056 192.028C104.52 191.188 103.32 189.988 102.456 188.428C101.592 186.868 101.16 185.044 101.16 182.956C101.16 180.868 101.58 179.044 102.42 177.484C103.284 175.924 104.484 174.724 106.02 173.884C107.556 173.044 109.32 172.624 111.312 172.624C113.256 172.624 114.984 173.032 116.496 173.848C118.008 174.664 119.184 175.828 120.024 177.34C120.888 178.852 121.32 180.616 121.32 182.632ZM115.02 181.012C115.02 179.956 114.66 179.116 113.94 178.492C113.22 177.868 112.32 177.556 111.24 177.556C110.208 177.556 109.332 177.856 108.612 178.456C107.916 179.056 107.484 179.908 107.316 181.012H115.02ZM123.344 182.92C123.344 180.856 123.728 179.044 124.496 177.484C125.288 175.924 126.356 174.724 127.7 173.884C129.044 173.044 130.544 172.624 132.2 172.624C133.616 172.624 134.852 172.912 135.908 173.488C136.988 174.064 137.816 174.82 138.392 175.756V172.912H144.548V193H138.392V190.156C137.792 191.092 136.952 191.848 135.872 192.424C134.816 193 133.58 193.288 132.164 193.288C130.532 193.288 129.044 192.868 127.7 192.028C126.356 191.164 125.288 189.952 124.496 188.392C123.728 186.808 123.344 184.984 123.344 182.92ZM138.392 182.956C138.392 181.42 137.96 180.208 137.096 179.32C136.256 178.432 135.224 177.988 134 177.988C132.776 177.988 131.732 178.432 130.868 179.32C130.028 180.184 129.608 181.384 129.608 182.92C129.608 184.456 130.028 185.68 130.868 186.592C131.732 187.48 132.776 187.924 134 187.924C135.224 187.924 136.256 187.48 137.096 186.592C137.96 185.704 138.392 184.492 138.392 182.956ZM155.158 176.26C155.878 175.156 156.778 174.292 157.858 173.668C158.938 173.02 160.138 172.696 161.458 172.696V179.212H159.766C158.23 179.212 157.078 179.548 156.31 180.22C155.542 180.868 155.158 182.02 155.158 183.676V193H149.002V172.912H155.158V176.26ZM172.572 193.288C170.82 193.288 169.26 192.988 167.892 192.388C166.524 191.788 165.444 190.972 164.652 189.94C163.86 188.884 163.416 187.708 163.32 186.412H169.404C169.476 187.108 169.8 187.672 170.376 188.104C170.952 188.536 171.66 188.752 172.5 188.752C173.268 188.752 173.856 188.608 174.264 188.32C174.696 188.008 174.912 187.612 174.912 187.132C174.912 186.556 174.612 186.136 174.012 185.872C173.412 185.584 172.44 185.272 171.096 184.936C169.656 184.6 168.456 184.252 167.496 183.892C166.536 183.508 165.708 182.92 165.012 182.128C164.316 181.312 163.968 180.22 163.968 178.852C163.968 177.7 164.28 176.656 164.904 175.72C165.552 174.76 166.488 174.004 167.712 173.452C168.96 172.9 170.436 172.624 172.14 172.624C174.66 172.624 176.64 173.248 178.08 174.496C179.544 175.744 180.384 177.4 180.6 179.464H174.912C174.816 178.768 174.504 178.216 173.976 177.808C173.472 177.4 172.8 177.196 171.96 177.196C171.24 177.196 170.688 177.34 170.304 177.628C169.92 177.892 169.728 178.264 169.728 178.744C169.728 179.32 170.028 179.752 170.628 180.04C171.252 180.328 172.212 180.616 173.508 180.904C174.996 181.288 176.208 181.672 177.144 182.056C178.08 182.416 178.896 183.016 179.592 183.856C180.312 184.672 180.684 185.776 180.708 187.168C180.708 188.344 180.372 189.4 179.7 190.336C179.052 191.248 178.104 191.968 176.856 192.496C175.632 193.024 174.204 193.288 172.572 193.288Z" fill="white"/>
<path d="M88.74 57.02C88.74 55.66 89.0533 54.44 89.68 53.36C90.32 52.28 91.18 51.44 92.26 50.84C93.3533 50.2267 94.5467 49.92 95.84 49.92C97.32 49.92 98.6333 50.2867 99.78 51.02C100.94 51.74 101.78 52.7667 102.3 54.1H99.56C99.2 53.3667 98.7 52.82 98.06 52.46C97.42 52.1 96.68 51.92 95.84 51.92C94.92 51.92 94.1 52.1267 93.38 52.54C92.66 52.9533 92.0933 53.5467 91.68 54.32C91.28 55.0933 91.08 55.9933 91.08 57.02C91.08 58.0467 91.28 58.9467 91.68 59.72C92.0933 60.4933 92.66 61.0933 93.38 61.52C94.1 61.9333 94.92 62.14 95.84 62.14C96.68 62.14 97.42 61.96 98.06 61.6C98.7 61.24 99.2 60.6933 99.56 59.96H102.3C101.78 61.2933 100.94 62.32 99.78 63.04C98.6333 63.76 97.32 64.12 95.84 64.12C94.5333 64.12 93.34 63.82 92.26 63.22C91.18 62.6067 90.32 61.76 89.68 60.68C89.0533 59.6 88.74 58.38 88.74 57.02ZM109.749 64.18C108.709 64.18 107.769 63.9467 106.929 63.48C106.089 63 105.429 62.3333 104.949 61.48C104.469 60.6133 104.229 59.6133 104.229 58.48C104.229 57.36 104.475 56.3667 104.969 55.5C105.462 54.6333 106.135 53.9667 106.989 53.5C107.842 53.0333 108.795 52.8 109.849 52.8C110.902 52.8 111.855 53.0333 112.709 53.5C113.562 53.9667 114.235 54.6333 114.729 55.5C115.222 56.3667 115.469 57.36 115.469 58.48C115.469 59.6 115.215 60.5933 114.709 61.46C114.202 62.3267 113.509 63 112.629 63.48C111.762 63.9467 110.802 64.18 109.749 64.18ZM109.749 62.2C110.335 62.2 110.882 62.06 111.389 61.78C111.909 61.5 112.329 61.08 112.649 60.52C112.969 59.96 113.129 59.28 113.129 58.48C113.129 57.68 112.975 57.0067 112.669 56.46C112.362 55.9 111.955 55.48 111.449 55.2C110.942 54.92 110.395 54.78 109.809 54.78C109.222 54.78 108.675 54.92 108.169 55.2C107.675 55.48 107.282 55.9 106.989 56.46C106.695 57.0067 106.549 57.68 106.549 58.48C106.549 59.6667 106.849 60.5867 107.449 61.24C108.062 61.88 108.829 62.2 109.749 62.2ZM116.963 58.44C116.963 57.3333 117.189 56.3533 117.643 55.5C118.109 54.6467 118.736 53.9867 119.523 53.52C120.323 53.04 121.209 52.8 122.183 52.8C122.903 52.8 123.609 52.96 124.303 53.28C125.009 53.5867 125.569 54 125.983 54.52V49.2H128.283V64H125.983V62.34C125.609 62.8733 125.089 63.3133 124.423 63.66C123.769 64.0067 123.016 64.18 122.163 64.18C121.203 64.18 120.323 63.94 119.523 63.46C118.736 62.9667 118.109 62.2867 117.643 61.42C117.189 60.54 116.963 59.5467 116.963 58.44ZM125.983 58.48C125.983 57.72 125.823 57.06 125.503 56.5C125.196 55.94 124.789 55.5133 124.283 55.22C123.776 54.9267 123.229 54.78 122.643 54.78C122.056 54.78 121.509 54.9267 121.003 55.22C120.496 55.5 120.083 55.92 119.763 56.48C119.456 57.0267 119.303 57.68 119.303 58.44C119.303 59.2 119.456 59.8667 119.763 60.44C120.083 61.0133 120.496 61.4533 121.003 61.76C121.523 62.0533 122.069 62.2 122.643 62.2C123.229 62.2 123.776 62.0533 124.283 61.76C124.789 61.4667 125.196 61.04 125.503 60.48C125.823 59.9067 125.983 59.24 125.983 58.48ZM132.437 51.52C132.024 51.52 131.677 51.38 131.397 51.1C131.117 50.82 130.977 50.4733 130.977 50.06C130.977 49.6467 131.117 49.3 131.397 49.02C131.677 48.74 132.024 48.6 132.437 48.6C132.837 48.6 133.177 48.74 133.457 49.02C133.737 49.3 133.877 49.6467 133.877 50.06C133.877 50.4733 133.737 50.82 133.457 51.1C133.177 51.38 132.837 51.52 132.437 51.52ZM133.557 52.98V64H131.277V52.98H133.557ZM142.111 52.8C142.977 52.8 143.751 52.98 144.431 53.34C145.124 53.7 145.664 54.2333 146.051 54.94C146.437 55.6467 146.631 56.5 146.631 57.5V64H144.371V57.84C144.371 56.8533 144.124 56.1 143.631 55.58C143.137 55.0467 142.464 54.78 141.611 54.78C140.757 54.78 140.077 55.0467 139.571 55.58C139.077 56.1 138.831 56.8533 138.831 57.84V64H136.551V52.98H138.831V54.24C139.204 53.7867 139.677 53.4333 140.251 53.18C140.837 52.9267 141.457 52.8 142.111 52.8ZM153.979 52.8C154.832 52.8 155.586 52.9733 156.239 53.32C156.906 53.6533 157.426 54.0733 157.799 54.58V52.98H160.099V64.18C160.099 65.1933 159.886 66.0933 159.459 66.88C159.032 67.68 158.412 68.3067 157.599 68.76C156.799 69.2133 155.839 69.44 154.719 69.44C153.226 69.44 151.986 69.0867 150.999 68.38C150.012 67.6867 149.452 66.74 149.319 65.54H151.579C151.752 66.1133 152.119 66.5733 152.679 66.92C153.252 67.28 153.932 67.46 154.719 67.46C155.639 67.46 156.379 67.18 156.939 66.62C157.512 66.06 157.799 65.2467 157.799 64.18V62.34C157.412 62.86 156.886 63.3 156.219 63.66C155.566 64.0067 154.819 64.18 153.979 64.18C153.019 64.18 152.139 63.94 151.339 63.46C150.552 62.9667 149.926 62.2867 149.459 61.42C149.006 60.54 148.779 59.5467 148.779 58.44C148.779 57.3333 149.006 56.3533 149.459 55.5C149.926 54.6467 150.552 53.9867 151.339 53.52C152.139 53.04 153.019 52.8 153.979 52.8ZM157.799 58.48C157.799 57.72 157.639 57.06 157.319 56.5C157.012 55.94 156.606 55.5133 156.099 55.22C155.592 54.9267 155.046 54.78 154.459 54.78C153.872 54.78 153.326 54.9267 152.819 55.22C152.312 55.5 151.899 55.92 151.579 56.48C151.272 57.0267 151.119 57.68 151.119 58.44C151.119 59.2 151.272 59.8667 151.579 60.44C151.899 61.0133 152.312 61.4533 152.819 61.76C153.339 62.0533 153.886 62.2 154.459 62.2C155.046 62.2 155.592 62.0533 156.099 61.76C156.606 61.4667 157.012 61.04 157.319 60.48C157.639 59.9067 157.799 59.24 157.799 58.48Z" fill="white"/>
<defs>
<linearGradient id="paint0_linear_69_4" x1="240.5" y1="171.5" x2="3.00001" y2="9.00001" gradientUnits="userSpaceOnUse">
<stop stop-color="#07A3FE"/>
<stop offset="1" stop-color="#02F997"/>
</linearGradient>
</defs>
</svg>
