<svg width="251" height="250" viewBox="0 0 251 250" fill="none" xmlns="http://www.w3.org/2000/svg">
<rect x="3" y="2.5" width="245" height="245" rx="17.5" fill="black" fill-opacity="0.06" stroke="url(#paint0_linear_14_165)" stroke-width="5"/>
<g filter="url(#filter0_d_14_165)">
<path d="M21.3636 138V126.636L43.0682 108.682C44.5076 107.489 45.7386 106.371 46.7614 105.33C47.803 104.269 48.5985 103.18 49.1477 102.062C49.7159 100.945 50 99.7045 50 98.3409C50 96.8447 49.678 95.5663 49.0341 94.5057C48.4091 93.4451 47.5379 92.6307 46.4205 92.0625C45.303 91.4754 44.0152 91.1818 42.5568 91.1818C41.0985 91.1818 39.8106 91.4754 38.6932 92.0625C37.5947 92.6496 36.7424 93.5114 36.1364 94.6477C35.5303 95.7841 35.2273 97.1667 35.2273 98.7955H20.2273C20.2273 94.7045 21.1458 91.1818 22.983 88.2273C24.8201 85.2727 27.4148 83 30.767 81.4091C34.1193 79.8182 38.0492 79.0227 42.5568 79.0227C47.2159 79.0227 51.25 79.7708 54.6591 81.267C58.0871 82.7443 60.7292 84.8277 62.5852 87.517C64.4602 90.2064 65.3977 93.3598 65.3977 96.9773C65.3977 99.2121 64.9337 101.437 64.0057 103.653C63.0777 105.85 61.411 108.284 59.0057 110.955C56.6004 113.625 53.1818 116.807 48.75 120.5L43.2955 125.045V125.386H66.0227V138H21.3636ZM98.4233 139.591C93.1392 139.572 88.5748 138.35 84.7301 135.926C80.8854 133.502 77.9214 130.008 75.8381 125.443C73.7547 120.879 72.7225 115.405 72.7415 109.023C72.7604 102.621 73.8021 97.1856 75.8665 92.7159C77.9498 88.2462 80.9044 84.8466 84.7301 82.517C88.5748 80.1875 93.1392 79.0227 98.4233 79.0227C103.707 79.0227 108.272 80.197 112.116 82.5455C115.961 84.875 118.925 88.2746 121.009 92.7443C123.092 97.214 124.124 102.64 124.105 109.023C124.105 115.443 123.063 120.936 120.98 125.5C118.897 130.064 115.933 133.559 112.088 135.983C108.262 138.388 103.707 139.591 98.4233 139.591ZM98.4233 126.75C101.151 126.75 103.385 125.33 105.128 122.489C106.889 119.629 107.76 115.14 107.741 109.023C107.741 105.027 107.344 101.759 106.548 99.2216C105.753 96.6837 104.654 94.8087 103.253 93.5966C101.851 92.3655 100.241 91.75 98.4233 91.75C95.696 91.75 93.4706 93.1326 91.7472 95.8977C90.0237 98.6629 89.143 103.038 89.1051 109.023C89.0862 113.095 89.4744 116.447 90.2699 119.08C91.0653 121.693 92.1638 123.625 93.5653 124.875C94.9858 126.125 96.6051 126.75 98.4233 126.75ZM131.52 138V126.636L153.224 108.682C154.664 107.489 155.895 106.371 156.918 105.33C157.959 104.269 158.755 103.18 159.304 102.062C159.872 100.945 160.156 99.7045 160.156 98.3409C160.156 96.8447 159.834 95.5663 159.19 94.5057C158.565 93.4451 157.694 92.6307 156.577 92.0625C155.459 91.4754 154.171 91.1818 152.713 91.1818C151.255 91.1818 149.967 91.4754 148.849 92.0625C147.751 92.6496 146.899 93.5114 146.293 94.6477C145.687 95.7841 145.384 97.1667 145.384 98.7955H130.384C130.384 94.7045 131.302 91.1818 133.139 88.2273C134.976 85.2727 137.571 83 140.923 81.4091C144.276 79.8182 148.205 79.0227 152.713 79.0227C157.372 79.0227 161.406 79.7708 164.815 81.267C168.243 82.7443 170.885 84.8277 172.741 87.517C174.616 90.2064 175.554 93.3598 175.554 96.9773C175.554 99.2121 175.09 101.437 174.162 103.653C173.234 105.85 171.567 108.284 169.162 110.955C166.757 113.625 163.338 116.807 158.906 120.5L153.452 125.045V125.386H176.179V138H131.52ZM205.966 138.795C201.383 138.795 197.311 138.009 193.75 136.438C190.208 134.847 187.424 132.659 185.398 129.875C183.371 127.091 182.348 123.89 182.33 120.273H198.239C198.258 121.39 198.598 122.394 199.261 123.284C199.943 124.155 200.871 124.837 202.045 125.33C203.22 125.822 204.564 126.068 206.08 126.068C207.538 126.068 208.826 125.812 209.943 125.301C211.061 124.771 211.932 124.042 212.557 123.114C213.182 122.186 213.485 121.125 213.466 119.932C213.485 118.758 213.125 117.716 212.386 116.807C211.667 115.898 210.653 115.187 209.347 114.676C208.04 114.165 206.534 113.909 204.83 113.909H198.92V103H204.83C206.402 103 207.784 102.744 208.977 102.233C210.189 101.722 211.127 101.011 211.79 100.102C212.472 99.1932 212.803 98.1515 212.784 96.9773C212.803 95.8409 212.528 94.8371 211.96 93.9659C211.392 93.0947 210.597 92.4129 209.574 91.9205C208.57 91.428 207.405 91.1818 206.08 91.1818C204.64 91.1818 203.352 91.4375 202.216 91.9489C201.098 92.4602 200.218 93.1705 199.574 94.0795C198.93 94.9886 198.598 96.0303 198.58 97.2045H183.466C183.485 93.6439 184.46 90.5 186.392 87.7727C188.343 85.0455 191.013 82.9053 194.403 81.3523C197.794 79.7992 201.686 79.0227 206.08 79.0227C210.379 79.0227 214.176 79.7519 217.472 81.2102C220.786 82.6686 223.371 84.6761 225.227 87.233C227.102 89.7708 228.03 92.678 228.011 95.9545C228.049 99.2121 226.932 101.883 224.659 103.966C222.405 106.049 219.545 107.28 216.08 107.659V108.114C220.777 108.625 224.309 110.064 226.676 112.432C229.044 114.78 230.208 117.735 230.17 121.295C230.189 124.705 229.167 127.725 227.102 130.358C225.057 132.991 222.206 135.055 218.551 136.551C214.915 138.047 210.72 138.795 205.966 138.795Z" fill="white"/>
</g>
<path d="M71.612 187.224C69.9693 187.224 68.4973 186.957 67.196 186.424C65.8947 185.891 64.8493 185.101 64.06 184.056C63.292 183.011 62.8867 181.752 62.844 180.28H68.668C68.7533 181.112 69.0413 181.752 69.532 182.2C70.0227 182.627 70.6627 182.84 71.452 182.84C72.2627 182.84 72.9027 182.659 73.372 182.296C73.8413 181.912 74.076 181.389 74.076 180.728C74.076 180.173 73.884 179.715 73.5 179.352C73.1373 178.989 72.6787 178.691 72.124 178.456C71.5907 178.221 70.8227 177.955 69.82 177.656C68.3693 177.208 67.1853 176.76 66.268 176.312C65.3507 175.864 64.5613 175.203 63.9 174.328C63.2387 173.453 62.908 172.312 62.908 170.904C62.908 168.813 63.6653 167.181 65.18 166.008C66.6947 164.813 68.668 164.216 71.1 164.216C73.5747 164.216 75.5693 164.813 77.084 166.008C78.5987 167.181 79.4093 168.824 79.516 170.936H73.596C73.5533 170.211 73.2867 169.645 72.796 169.24C72.3053 168.813 71.676 168.6 70.908 168.6C70.2467 168.6 69.7133 168.781 69.308 169.144C68.9027 169.485 68.7 169.987 68.7 170.648C68.7 171.373 69.0413 171.939 69.724 172.344C70.4067 172.749 71.4733 173.187 72.924 173.656C74.3747 174.147 75.548 174.616 76.444 175.064C77.3613 175.512 78.1507 176.163 78.812 177.016C79.4733 177.869 79.804 178.968 79.804 180.312C79.804 181.592 79.4733 182.755 78.812 183.8C78.172 184.845 77.2333 185.677 75.996 186.296C74.7587 186.915 73.2973 187.224 71.612 187.224ZM99.3315 164.536V168.92H93.3795V187H87.9075V168.92H81.9555V164.536H99.3315ZM107.55 168.92V173.464H114.878V177.688H107.55V182.616H115.838V187H102.078V164.536H115.838V168.92H107.55ZM144.83 164.536V187H139.358V173.528L134.334 187H129.918L124.862 173.496V187H119.39V164.536H125.854L132.158 180.088L138.398 164.536H144.83ZM151.517 167.288C150.557 167.288 149.768 167.011 149.149 166.456C148.552 165.88 148.253 165.176 148.253 164.344C148.253 163.491 148.552 162.787 149.149 162.232C149.768 161.656 150.557 161.368 151.517 161.368C152.456 161.368 153.224 161.656 153.821 162.232C154.44 162.787 154.749 163.491 154.749 164.344C154.749 165.176 154.44 165.88 153.821 166.456C153.224 167.011 152.456 167.288 151.517 167.288ZM154.237 169.144V187H148.765V169.144H154.237ZM165.467 187.256C163.909 187.256 162.523 186.989 161.307 186.456C160.091 185.923 159.131 185.197 158.427 184.28C157.723 183.341 157.328 182.296 157.243 181.144H162.651C162.715 181.763 163.003 182.264 163.515 182.648C164.027 183.032 164.656 183.224 165.403 183.224C166.085 183.224 166.608 183.096 166.971 182.84C167.355 182.563 167.547 182.211 167.547 181.784C167.547 181.272 167.28 180.899 166.747 180.664C166.213 180.408 165.349 180.131 164.155 179.832C162.875 179.533 161.808 179.224 160.955 178.904C160.101 178.563 159.365 178.04 158.747 177.336C158.128 176.611 157.819 175.64 157.819 174.424C157.819 173.4 158.096 172.472 158.651 171.64C159.227 170.787 160.059 170.115 161.147 169.624C162.256 169.133 163.568 168.888 165.083 168.888C167.323 168.888 169.083 169.443 170.363 170.552C171.664 171.661 172.411 173.133 172.603 174.968H167.547C167.461 174.349 167.184 173.859 166.715 173.496C166.267 173.133 165.669 172.952 164.923 172.952C164.283 172.952 163.792 173.08 163.451 173.336C163.109 173.571 162.939 173.901 162.939 174.328C162.939 174.84 163.205 175.224 163.739 175.48C164.293 175.736 165.147 175.992 166.299 176.248C167.621 176.589 168.699 176.931 169.531 177.272C170.363 177.592 171.088 178.125 171.707 178.872C172.347 179.597 172.677 180.579 172.699 181.816C172.699 182.861 172.4 183.8 171.803 184.632C171.227 185.443 170.384 186.083 169.275 186.552C168.187 187.021 166.917 187.256 165.467 187.256ZM185.999 182.36V187H183.215C181.231 187 179.684 186.52 178.575 185.56C177.465 184.579 176.911 182.989 176.911 180.792V173.688H174.735V169.144H176.911V164.792H182.383V169.144H185.967V173.688H182.383V180.856C182.383 181.389 182.511 181.773 182.767 182.008C183.023 182.243 183.449 182.36 184.047 182.36H185.999Z" fill="white"/>
<path d="M98.64 53.1V67H96.36V57.48L92.12 67H90.54L86.28 57.48V67H84V53.1H86.46L91.34 64L96.2 53.1H98.64ZM111.737 61.22C111.737 61.6333 111.71 62.0067 111.657 62.34H103.237C103.303 63.22 103.63 63.9267 104.217 64.46C104.803 64.9933 105.523 65.26 106.377 65.26C107.603 65.26 108.47 64.7467 108.977 63.72H111.437C111.103 64.7333 110.497 65.5667 109.617 66.22C108.75 66.86 107.67 67.18 106.377 67.18C105.323 67.18 104.377 66.9467 103.537 66.48C102.71 66 102.057 65.3333 101.577 64.48C101.11 63.6133 100.877 62.6133 100.877 61.48C100.877 60.3467 101.103 59.3533 101.557 58.5C102.023 57.6333 102.67 56.9667 103.497 56.5C104.337 56.0333 105.297 55.8 106.377 55.8C107.417 55.8 108.343 56.0267 109.157 56.48C109.97 56.9333 110.603 57.5733 111.057 58.4C111.51 59.2133 111.737 60.1533 111.737 61.22ZM109.357 60.5C109.343 59.66 109.043 58.9867 108.457 58.48C107.87 57.9733 107.143 57.72 106.277 57.72C105.49 57.72 104.817 57.9733 104.257 58.48C103.697 58.9733 103.363 59.6467 103.257 60.5H109.357ZM127.32 55.8C128.187 55.8 128.96 55.98 129.64 56.34C130.334 56.7 130.874 57.2333 131.26 57.94C131.66 58.6467 131.86 59.5 131.86 60.5V67H129.6V60.84C129.6 59.8533 129.354 59.1 128.86 58.58C128.367 58.0467 127.694 57.78 126.84 57.78C125.987 57.78 125.307 58.0467 124.8 58.58C124.307 59.1 124.06 59.8533 124.06 60.84V67H121.8V60.84C121.8 59.8533 121.554 59.1 121.06 58.58C120.567 58.0467 119.894 57.78 119.04 57.78C118.187 57.78 117.507 58.0467 117 58.58C116.507 59.1 116.26 59.8533 116.26 60.84V67H113.98V55.98H116.26V57.24C116.634 56.7867 117.107 56.4333 117.68 56.18C118.254 55.9267 118.867 55.8 119.52 55.8C120.4 55.8 121.187 55.9867 121.88 56.36C122.574 56.7333 123.107 57.2733 123.48 57.98C123.814 57.3133 124.334 56.7867 125.04 56.4C125.747 56 126.507 55.8 127.32 55.8ZM137.042 57.62C137.428 57.0867 137.955 56.6533 138.622 56.32C139.302 55.9733 140.055 55.8 140.882 55.8C141.855 55.8 142.735 56.0333 143.522 56.5C144.308 56.9667 144.928 57.6333 145.382 58.5C145.835 59.3533 146.062 60.3333 146.062 61.44C146.062 62.5467 145.835 63.54 145.382 64.42C144.928 65.2867 144.302 65.9667 143.502 66.46C142.715 66.94 141.842 67.18 140.882 67.18C140.028 67.18 139.268 67.0133 138.602 66.68C137.948 66.3467 137.428 65.92 137.042 65.4V67H134.762V52.2H137.042V57.62ZM143.742 61.44C143.742 60.68 143.582 60.0267 143.262 59.48C142.955 58.92 142.542 58.5 142.022 58.22C141.515 57.9267 140.968 57.78 140.382 57.78C139.808 57.78 139.262 57.9267 138.742 58.22C138.235 58.5133 137.822 58.94 137.502 59.5C137.195 60.06 137.042 60.72 137.042 61.48C137.042 62.24 137.195 62.9067 137.502 63.48C137.822 64.04 138.235 64.4667 138.742 64.76C139.262 65.0533 139.808 65.2 140.382 65.2C140.968 65.2 141.515 65.0533 142.022 64.76C142.542 64.4533 142.955 64.0133 143.262 63.44C143.582 62.8667 143.742 62.2 143.742 61.44ZM158.416 61.22C158.416 61.6333 158.39 62.0067 158.336 62.34H149.916C149.983 63.22 150.31 63.9267 150.896 64.46C151.483 64.9933 152.203 65.26 153.056 65.26C154.283 65.26 155.15 64.7467 155.656 63.72H158.116C157.783 64.7333 157.176 65.5667 156.296 66.22C155.43 66.86 154.35 67.18 153.056 67.18C152.003 67.18 151.056 66.9467 150.216 66.48C149.39 66 148.736 65.3333 148.256 64.48C147.79 63.6133 147.556 62.6133 147.556 61.48C147.556 60.3467 147.783 59.3533 148.236 58.5C148.703 57.6333 149.35 56.9667 150.176 56.5C151.016 56.0333 151.976 55.8 153.056 55.8C154.096 55.8 155.023 56.0267 155.836 56.48C156.65 56.9333 157.283 57.5733 157.736 58.4C158.19 59.2133 158.416 60.1533 158.416 61.22ZM156.036 60.5C156.023 59.66 155.723 58.9867 155.136 58.48C154.55 57.9733 153.823 57.72 152.956 57.72C152.17 57.72 151.496 57.9733 150.936 58.48C150.376 58.9733 150.043 59.6467 149.936 60.5H156.036ZM162.94 57.58C163.273 57.02 163.713 56.5867 164.26 56.28C164.82 55.96 165.48 55.8 166.24 55.8V58.16H165.66C164.767 58.16 164.087 58.3867 163.62 58.84C163.167 59.2933 162.94 60.08 162.94 61.2V67H160.66V55.98H162.94V57.58Z" fill="white"/>
<defs>
<filter id="filter0_d_14_165" x="16.2273" y="79.0227" width="218" height="68.5681" filterUnits="userSpaceOnUse" color-interpolation-filters="sRGB">
<feFlood flood-opacity="0" result="BackgroundImageFix"/>
<feColorMatrix in="SourceAlpha" type="matrix" values="0 0 0 0 0 0 0 0 0 0 0 0 0 0 0 0 0 0 127 0" result="hardAlpha"/>
<feOffset dy="4"/>
<feGaussianBlur stdDeviation="2"/>
<feComposite in2="hardAlpha" operator="out"/>
<feColorMatrix type="matrix" values="0 0 0 0 0 0 0 0 0 0 0 0 0 0 0 0 0 0 0.25 0"/>
<feBlend mode="normal" in2="BackgroundImageFix" result="effect1_dropShadow_14_165"/>
<feBlend mode="normal" in="SourceGraphic" in2="effect1_dropShadow_14_165" result="shape"/>
</filter>
<linearGradient id="paint0_linear_14_165" x1="125.5" y1="0" x2="125.5" y2="250" gradientUnits="userSpaceOnUse">
<stop stop-color="#07A3FE"/>
<stop offset="1" stop-color="#02F997"/>
</linearGradient>
</defs>
</svg>
